#N canvas 467 302 511 161 8;
#X msg 271 21 bang;
#X obj 258 46 s Add_Sample;
#N canvas 397 326 495 554 donotlookdonotlookdonotlook 0;
#N canvas 297 202 495 554 init 0;
#X obj 117 205 print cutzilla!!! -n;
#X obj 50 52 loadbang;
#X msg 105 120 [+++] cutzilla.pd \;;
#X obj 50 226 r prompt;
#X obj 50 245 print cutzilla--> -n;
#X msg 87 139 [+++] Author: omfgitsatoad@gmail.com \;;
#X msg 68 158 [+++] Website: omfgitsatoad.github.io \;;
#X obj 33 86 t b b b;
#X connect 1 0 7 0;
#X connect 2 0 0 0;
#X connect 3 0 4 0;
#X connect 5 0 0 0;
#X connect 6 0 0 0;
#X connect 7 0 6 0;
#X connect 7 1 5 0;
#X connect 7 2 2 0;
#X restore 4 4 pd init;
#N canvas 0 22 495 554 samples 0;
#X obj 306 31 s Storage_ID;
#X obj 10 30 openpanel;
#X obj 10 217 soundfiler;
#X msg 10 195 read -resize \$1 \$2-\$3-l \$2-\$3-r;
#X obj 10 171 pack s f f;
#X obj 43 110 r Storage_ID;
#X obj 77 129 r Load_Count;
#X obj 43 129 f;
#X obj 77 148 f;
#X obj 10 62 t a b b;
#X obj 33 294 tabwrite \$0-lengths;
#X obj 183 10 table \$0-lengths;
#X obj 56 270 f;
#X obj 64 242 r Load_Count;
#X obj 10 236 t b f b;
#X obj 10 313 s INC_Count;
#X obj 296 104 r INC_Count;
#X obj 296 126 int;
#X obj 324 126 + 1;
#X obj 324 146 s Load_Count;
#X floatatom 310 175 5 0 0 0 - - -, f 5;
#X obj 147 95 s prompt;
#X msg 78 68 loading \$1 \;;
#X obj 10 11 r Add_Sample;
#X obj 310 196 s total_loops;
#N canvas 0 0 495 554 shitloadsofsamples 0;
#X obj 10 10 table \$0-0-l;
#X obj 200 10 table \$0-0-r;
#X obj 10 30 table \$0-1-l;
#X obj 200 30 table \$0-1-r;
#X obj 10 50 table \$0-2-l;
#X obj 200 50 table \$0-2-r;
#X obj 10 70 table \$0-3-l;
#X obj 200 70 table \$0-3-r;
#X obj 10 90 table \$0-4-l;
#X obj 200 90 table \$0-4-r;
#X obj 10 110 table \$0-5-l;
#X obj 200 110 table \$0-5-r;
#X obj 10 130 table \$0-6-l;
#X obj 200 130 table \$0-6-r;
#X obj 10 150 table \$0-7-l;
#X obj 200 150 table \$0-7-r;
#X obj 10 170 table \$0-8-l;
#X obj 200 170 table \$0-8-r;
#X obj 10 190 table \$0-9-l;
#X obj 200 190 table \$0-9-r;
#X obj 10 210 table \$0-10-l;
#X obj 200 210 table \$0-10-r;
#X obj 10 230 table \$0-11-l;
#X obj 200 230 table \$0-11-r;
#X obj 10 250 table \$0-12-l;
#X obj 200 250 table \$0-12-r;
#X obj 10 270 table \$0-13-l;
#X obj 200 270 table \$0-13-r;
#X obj 10 290 table \$0-14-l;
#X obj 200 290 table \$0-14-r;
#X obj 10 310 table \$0-15-l;
#X obj 200 310 table \$0-15-r;
#X obj 10 330 table \$0-16-l;
#X obj 200 330 table \$0-16-r;
#X obj 10 350 table \$0-17-l;
#X obj 200 350 table \$0-17-r;
#X obj 10 370 table \$0-18-l;
#X obj 200 370 table \$0-18-r;
#X obj 10 390 table \$0-19-l;
#X obj 200 390 table \$0-19-r;
#X obj 10 410 table \$0-20-l;
#X obj 200 410 table \$0-20-r;
#X obj 10 430 table \$0-21-l;
#X obj 200 430 table \$0-21-r;
#X obj 10 450 table \$0-22-l;
#X obj 200 450 table \$0-22-r;
#X obj 10 470 table \$0-23-l;
#X obj 200 470 table \$0-23-r;
#X obj 10 490 table \$0-24-l;
#X obj 200 490 table \$0-24-r;
#X obj 10 510 table \$0-25-l;
#X obj 200 510 table \$0-25-r;
#X obj 10 530 table \$0-26-l;
#X obj 200 530 table \$0-26-r;
#X obj 10 550 table \$0-27-l;
#X obj 200 550 table \$0-27-r;
#X obj 10 570 table \$0-28-l;
#X obj 200 570 table \$0-28-r;
#X obj 10 590 table \$0-29-l;
#X obj 200 590 table \$0-29-r;
#X obj 10 610 table \$0-30-l;
#X obj 200 610 table \$0-30-r;
#X obj 10 630 table \$0-31-l;
#X obj 200 630 table \$0-31-r;
#X obj 10 650 table \$0-32-l;
#X obj 200 650 table \$0-32-r;
#X obj 10 670 table \$0-33-l;
#X obj 200 670 table \$0-33-r;
#X obj 10 690 table \$0-34-l;
#X obj 200 690 table \$0-34-r;
#X obj 10 710 table \$0-35-l;
#X obj 200 710 table \$0-35-r;
#X obj 10 730 table \$0-36-l;
#X obj 200 730 table \$0-36-r;
#X obj 10 750 table \$0-37-l;
#X obj 200 750 table \$0-37-r;
#X obj 10 770 table \$0-38-l;
#X obj 200 770 table \$0-38-r;
#X obj 10 790 table \$0-39-l;
#X obj 200 790 table \$0-39-r;
#X obj 10 810 table \$0-40-l;
#X obj 200 810 table \$0-40-r;
#X obj 10 830 table \$0-41-l;
#X obj 200 830 table \$0-41-r;
#X obj 10 850 table \$0-42-l;
#X obj 200 850 table \$0-42-r;
#X obj 10 870 table \$0-43-l;
#X obj 200 870 table \$0-43-r;
#X obj 10 890 table \$0-44-l;
#X obj 200 890 table \$0-44-r;
#X obj 10 910 table \$0-45-l;
#X obj 200 910 table \$0-45-r;
#X obj 10 930 table \$0-46-l;
#X obj 200 930 table \$0-46-r;
#X obj 10 950 table \$0-47-l;
#X obj 200 950 table \$0-47-r;
#X obj 10 970 table \$0-48-l;
#X obj 200 970 table \$0-48-r;
#X obj 10 990 table \$0-49-l;
#X obj 200 990 table \$0-49-r;
#X obj 10 1010 table \$0-50-l;
#X obj 200 1010 table \$0-50-r;
#X obj 10 1030 table \$0-51-l;
#X obj 200 1030 table \$0-51-r;
#X obj 10 1050 table \$0-52-l;
#X obj 200 1050 table \$0-52-r;
#X obj 10 1070 table \$0-53-l;
#X obj 200 1070 table \$0-53-r;
#X obj 10 1090 table \$0-54-l;
#X obj 200 1090 table \$0-54-r;
#X obj 10 1110 table \$0-55-l;
#X obj 200 1110 table \$0-55-r;
#X obj 10 1130 table \$0-56-l;
#X obj 200 1130 table \$0-56-r;
#X obj 10 1150 table \$0-57-l;
#X obj 200 1150 table \$0-57-r;
#X obj 10 1170 table \$0-58-l;
#X obj 200 1170 table \$0-58-r;
#X obj 10 1190 table \$0-59-l;
#X obj 200 1190 table \$0-59-r;
#X obj 10 1210 table \$0-60-l;
#X obj 200 1210 table \$0-60-r;
#X obj 10 1230 table \$0-61-l;
#X obj 200 1230 table \$0-61-r;
#X obj 10 1250 table \$0-62-l;
#X obj 200 1250 table \$0-62-r;
#X obj 10 1270 table \$0-63-l;
#X obj 200 1270 table \$0-63-r;
#X obj 10 1290 table \$0-64-l;
#X obj 200 1290 table \$0-64-r;
#X obj 10 1310 table \$0-65-l;
#X obj 200 1310 table \$0-65-r;
#X obj 10 1330 table \$0-66-l;
#X obj 200 1330 table \$0-66-r;
#X obj 10 1350 table \$0-67-l;
#X obj 200 1350 table \$0-67-r;
#X obj 10 1370 table \$0-68-l;
#X obj 200 1370 table \$0-68-r;
#X obj 10 1390 table \$0-69-l;
#X obj 200 1390 table \$0-69-r;
#X obj 10 1410 table \$0-70-l;
#X obj 200 1410 table \$0-70-r;
#X obj 10 1430 table \$0-71-l;
#X obj 200 1430 table \$0-71-r;
#X obj 10 1450 table \$0-72-l;
#X obj 200 1450 table \$0-72-r;
#X obj 10 1470 table \$0-73-l;
#X obj 200 1470 table \$0-73-r;
#X obj 10 1490 table \$0-74-l;
#X obj 200 1490 table \$0-74-r;
#X obj 10 1510 table \$0-75-l;
#X obj 200 1510 table \$0-75-r;
#X obj 10 1530 table \$0-76-l;
#X obj 200 1530 table \$0-76-r;
#X obj 10 1550 table \$0-77-l;
#X obj 200 1550 table \$0-77-r;
#X obj 10 1570 table \$0-78-l;
#X obj 200 1570 table \$0-78-r;
#X obj 10 1590 table \$0-79-l;
#X obj 200 1590 table \$0-79-r;
#X obj 10 1610 table \$0-80-l;
#X obj 200 1610 table \$0-80-r;
#X obj 10 1630 table \$0-81-l;
#X obj 200 1630 table \$0-81-r;
#X obj 10 1650 table \$0-82-l;
#X obj 200 1650 table \$0-82-r;
#X obj 10 1670 table \$0-83-l;
#X obj 200 1670 table \$0-83-r;
#X obj 10 1690 table \$0-84-l;
#X obj 200 1690 table \$0-84-r;
#X obj 10 1710 table \$0-85-l;
#X obj 200 1710 table \$0-85-r;
#X obj 10 1730 table \$0-86-l;
#X obj 200 1730 table \$0-86-r;
#X obj 10 1750 table \$0-87-l;
#X obj 200 1750 table \$0-87-r;
#X obj 10 1770 table \$0-88-l;
#X obj 200 1770 table \$0-88-r;
#X obj 10 1790 table \$0-89-l;
#X obj 200 1790 table \$0-89-r;
#X obj 10 1810 table \$0-90-l;
#X obj 200 1810 table \$0-90-r;
#X obj 10 1830 table \$0-91-l;
#X obj 200 1830 table \$0-91-r;
#X obj 10 1850 table \$0-92-l;
#X obj 200 1850 table \$0-92-r;
#X obj 10 1870 table \$0-93-l;
#X obj 200 1870 table \$0-93-r;
#X obj 10 1890 table \$0-94-l;
#X obj 200 1890 table \$0-94-r;
#X obj 10 1910 table \$0-95-l;
#X obj 200 1910 table \$0-95-r;
#X obj 10 1930 table \$0-96-l;
#X obj 200 1930 table \$0-96-r;
#X obj 10 1950 table \$0-97-l;
#X obj 200 1950 table \$0-97-r;
#X obj 10 1970 table \$0-98-l;
#X obj 200 1970 table \$0-98-r;
#X obj 10 1990 table \$0-99-l;
#X obj 200 1990 table \$0-99-r;
#X obj 10 2010 table \$0-100-l;
#X obj 200 2010 table \$0-100-r;
#X obj 10 2030 table \$0-101-l;
#X obj 200 2030 table \$0-101-r;
#X obj 10 2050 table \$0-102-l;
#X obj 200 2050 table \$0-102-r;
#X obj 10 2070 table \$0-103-l;
#X obj 200 2070 table \$0-103-r;
#X obj 10 2090 table \$0-104-l;
#X obj 200 2090 table \$0-104-r;
#X obj 10 2110 table \$0-105-l;
#X obj 200 2110 table \$0-105-r;
#X obj 10 2130 table \$0-106-l;
#X obj 200 2130 table \$0-106-r;
#X obj 10 2150 table \$0-107-l;
#X obj 200 2150 table \$0-107-r;
#X obj 10 2170 table \$0-108-l;
#X obj 200 2170 table \$0-108-r;
#X obj 10 2190 table \$0-109-l;
#X obj 200 2190 table \$0-109-r;
#X obj 10 2210 table \$0-110-l;
#X obj 200 2210 table \$0-110-r;
#X obj 10 2230 table \$0-111-l;
#X obj 200 2230 table \$0-111-r;
#X obj 10 2250 table \$0-112-l;
#X obj 200 2250 table \$0-112-r;
#X obj 10 2270 table \$0-113-l;
#X obj 200 2270 table \$0-113-r;
#X obj 10 2290 table \$0-114-l;
#X obj 200 2290 table \$0-114-r;
#X obj 10 2310 table \$0-115-l;
#X obj 200 2310 table \$0-115-r;
#X obj 10 2330 table \$0-116-l;
#X obj 200 2330 table \$0-116-r;
#X obj 10 2350 table \$0-117-l;
#X obj 200 2350 table \$0-117-r;
#X obj 10 2370 table \$0-118-l;
#X obj 200 2370 table \$0-118-r;
#X obj 10 2390 table \$0-119-l;
#X obj 200 2390 table \$0-119-r;
#X obj 10 2410 table \$0-120-l;
#X obj 200 2410 table \$0-120-r;
#X obj 10 2430 table \$0-121-l;
#X obj 200 2430 table \$0-121-r;
#X obj 10 2450 table \$0-122-l;
#X obj 200 2450 table \$0-122-r;
#X obj 10 2470 table \$0-123-l;
#X obj 200 2470 table \$0-123-r;
#X obj 10 2490 table \$0-124-l;
#X obj 200 2490 table \$0-124-r;
#X obj 10 2510 table \$0-125-l;
#X obj 200 2510 table \$0-125-r;
#X obj 10 2530 table \$0-126-l;
#X obj 200 2530 table \$0-126-r;
#X obj 10 2550 table \$0-127-l;
#X obj 200 2550 table \$0-127-r;
#X obj 10 2570 table \$0-128-l;
#X obj 200 2570 table \$0-128-r;
#X obj 10 2590 table \$0-129-l;
#X obj 200 2590 table \$0-129-r;
#X obj 10 2610 table \$0-130-l;
#X obj 200 2610 table \$0-130-r;
#X obj 10 2630 table \$0-131-l;
#X obj 200 2630 table \$0-131-r;
#X obj 10 2650 table \$0-132-l;
#X obj 200 2650 table \$0-132-r;
#X obj 10 2670 table \$0-133-l;
#X obj 200 2670 table \$0-133-r;
#X obj 10 2690 table \$0-134-l;
#X obj 200 2690 table \$0-134-r;
#X obj 10 2710 table \$0-135-l;
#X obj 200 2710 table \$0-135-r;
#X obj 10 2730 table \$0-136-l;
#X obj 200 2730 table \$0-136-r;
#X obj 10 2750 table \$0-137-l;
#X obj 200 2750 table \$0-137-r;
#X obj 10 2770 table \$0-138-l;
#X obj 200 2770 table \$0-138-r;
#X obj 10 2790 table \$0-139-l;
#X obj 200 2790 table \$0-139-r;
#X obj 10 2810 table \$0-140-l;
#X obj 200 2810 table \$0-140-r;
#X obj 10 2830 table \$0-141-l;
#X obj 200 2830 table \$0-141-r;
#X obj 10 2850 table \$0-142-l;
#X obj 200 2850 table \$0-142-r;
#X obj 10 2870 table \$0-143-l;
#X obj 200 2870 table \$0-143-r;
#X obj 10 2890 table \$0-144-l;
#X obj 200 2890 table \$0-144-r;
#X obj 10 2910 table \$0-145-l;
#X obj 200 2910 table \$0-145-r;
#X obj 10 2930 table \$0-146-l;
#X obj 200 2930 table \$0-146-r;
#X obj 10 2950 table \$0-147-l;
#X obj 200 2950 table \$0-147-r;
#X obj 10 2970 table \$0-148-l;
#X obj 200 2970 table \$0-148-r;
#X obj 10 2990 table \$0-149-l;
#X obj 200 2990 table \$0-149-r;
#X obj 10 3010 table \$0-150-l;
#X obj 200 3010 table \$0-150-r;
#X obj 10 3030 table \$0-151-l;
#X obj 200 3030 table \$0-151-r;
#X obj 10 3050 table \$0-152-l;
#X obj 200 3050 table \$0-152-r;
#X obj 10 3070 table \$0-153-l;
#X obj 200 3070 table \$0-153-r;
#X obj 10 3090 table \$0-154-l;
#X obj 200 3090 table \$0-154-r;
#X obj 10 3110 table \$0-155-l;
#X obj 200 3110 table \$0-155-r;
#X obj 10 3130 table \$0-156-l;
#X obj 200 3130 table \$0-156-r;
#X obj 10 3150 table \$0-157-l;
#X obj 200 3150 table \$0-157-r;
#X obj 10 3170 table \$0-158-l;
#X obj 200 3170 table \$0-158-r;
#X obj 10 3190 table \$0-159-l;
#X obj 200 3190 table \$0-159-r;
#X obj 10 3210 table \$0-160-l;
#X obj 200 3210 table \$0-160-r;
#X obj 10 3230 table \$0-161-l;
#X obj 200 3230 table \$0-161-r;
#X obj 10 3250 table \$0-162-l;
#X obj 200 3250 table \$0-162-r;
#X obj 10 3270 table \$0-163-l;
#X obj 200 3270 table \$0-163-r;
#X obj 10 3290 table \$0-164-l;
#X obj 200 3290 table \$0-164-r;
#X obj 10 3310 table \$0-165-l;
#X obj 200 3310 table \$0-165-r;
#X obj 10 3330 table \$0-166-l;
#X obj 200 3330 table \$0-166-r;
#X obj 10 3350 table \$0-167-l;
#X obj 200 3350 table \$0-167-r;
#X obj 10 3370 table \$0-168-l;
#X obj 200 3370 table \$0-168-r;
#X obj 10 3390 table \$0-169-l;
#X obj 200 3390 table \$0-169-r;
#X obj 10 3410 table \$0-170-l;
#X obj 200 3410 table \$0-170-r;
#X obj 10 3430 table \$0-171-l;
#X obj 200 3430 table \$0-171-r;
#X obj 10 3450 table \$0-172-l;
#X obj 200 3450 table \$0-172-r;
#X obj 10 3470 table \$0-173-l;
#X obj 200 3470 table \$0-173-r;
#X obj 10 3490 table \$0-174-l;
#X obj 200 3490 table \$0-174-r;
#X obj 10 3510 table \$0-175-l;
#X obj 200 3510 table \$0-175-r;
#X obj 10 3530 table \$0-176-l;
#X obj 200 3530 table \$0-176-r;
#X obj 10 3550 table \$0-177-l;
#X obj 200 3550 table \$0-177-r;
#X obj 10 3570 table \$0-178-l;
#X obj 200 3570 table \$0-178-r;
#X obj 10 3590 table \$0-179-l;
#X obj 200 3590 table \$0-179-r;
#X obj 10 3610 table \$0-180-l;
#X obj 200 3610 table \$0-180-r;
#X obj 10 3630 table \$0-181-l;
#X obj 200 3630 table \$0-181-r;
#X obj 10 3650 table \$0-182-l;
#X obj 200 3650 table \$0-182-r;
#X obj 10 3670 table \$0-183-l;
#X obj 200 3670 table \$0-183-r;
#X obj 10 3690 table \$0-184-l;
#X obj 200 3690 table \$0-184-r;
#X obj 10 3710 table \$0-185-l;
#X obj 200 3710 table \$0-185-r;
#X obj 10 3730 table \$0-186-l;
#X obj 200 3730 table \$0-186-r;
#X obj 10 3750 table \$0-187-l;
#X obj 200 3750 table \$0-187-r;
#X obj 10 3770 table \$0-188-l;
#X obj 200 3770 table \$0-188-r;
#X obj 10 3790 table \$0-189-l;
#X obj 200 3790 table \$0-189-r;
#X obj 10 3810 table \$0-190-l;
#X obj 200 3810 table \$0-190-r;
#X obj 10 3830 table \$0-191-l;
#X obj 200 3830 table \$0-191-r;
#X obj 10 3850 table \$0-192-l;
#X obj 200 3850 table \$0-192-r;
#X obj 10 3870 table \$0-193-l;
#X obj 200 3870 table \$0-193-r;
#X obj 10 3890 table \$0-194-l;
#X obj 200 3890 table \$0-194-r;
#X obj 10 3910 table \$0-195-l;
#X obj 200 3910 table \$0-195-r;
#X obj 10 3930 table \$0-196-l;
#X obj 200 3930 table \$0-196-r;
#X obj 10 3950 table \$0-197-l;
#X obj 200 3950 table \$0-197-r;
#X obj 10 3970 table \$0-198-l;
#X obj 200 3970 table \$0-198-r;
#X obj 10 3990 table \$0-199-l;
#X obj 200 3990 table \$0-199-r;
#X obj 10 4010 table \$0-200-l;
#X obj 200 4010 table \$0-200-r;
#X obj 10 4030 table \$0-201-l;
#X obj 200 4030 table \$0-201-r;
#X obj 10 4050 table \$0-202-l;
#X obj 200 4050 table \$0-202-r;
#X obj 10 4070 table \$0-203-l;
#X obj 200 4070 table \$0-203-r;
#X obj 10 4090 table \$0-204-l;
#X obj 200 4090 table \$0-204-r;
#X obj 10 4110 table \$0-205-l;
#X obj 200 4110 table \$0-205-r;
#X obj 10 4130 table \$0-206-l;
#X obj 200 4130 table \$0-206-r;
#X obj 10 4150 table \$0-207-l;
#X obj 200 4150 table \$0-207-r;
#X obj 10 4170 table \$0-208-l;
#X obj 200 4170 table \$0-208-r;
#X obj 10 4190 table \$0-209-l;
#X obj 200 4190 table \$0-209-r;
#X obj 10 4210 table \$0-210-l;
#X obj 200 4210 table \$0-210-r;
#X obj 10 4230 table \$0-211-l;
#X obj 200 4230 table \$0-211-r;
#X obj 10 4250 table \$0-212-l;
#X obj 200 4250 table \$0-212-r;
#X obj 10 4270 table \$0-213-l;
#X obj 200 4270 table \$0-213-r;
#X obj 10 4290 table \$0-214-l;
#X obj 200 4290 table \$0-214-r;
#X obj 10 4310 table \$0-215-l;
#X obj 200 4310 table \$0-215-r;
#X obj 10 4330 table \$0-216-l;
#X obj 200 4330 table \$0-216-r;
#X obj 10 4350 table \$0-217-l;
#X obj 200 4350 table \$0-217-r;
#X obj 10 4370 table \$0-218-l;
#X obj 200 4370 table \$0-218-r;
#X obj 10 4390 table \$0-219-l;
#X obj 200 4390 table \$0-219-r;
#X obj 10 4410 table \$0-220-l;
#X obj 200 4410 table \$0-220-r;
#X obj 10 4430 table \$0-221-l;
#X obj 200 4430 table \$0-221-r;
#X obj 10 4450 table \$0-222-l;
#X obj 200 4450 table \$0-222-r;
#X obj 10 4470 table \$0-223-l;
#X obj 200 4470 table \$0-223-r;
#X obj 10 4490 table \$0-224-l;
#X obj 200 4490 table \$0-224-r;
#X obj 10 4510 table \$0-225-l;
#X obj 200 4510 table \$0-225-r;
#X obj 10 4530 table \$0-226-l;
#X obj 200 4530 table \$0-226-r;
#X obj 10 4550 table \$0-227-l;
#X obj 200 4550 table \$0-227-r;
#X obj 10 4570 table \$0-228-l;
#X obj 200 4570 table \$0-228-r;
#X obj 10 4590 table \$0-229-l;
#X obj 200 4590 table \$0-229-r;
#X obj 10 4610 table \$0-230-l;
#X obj 200 4610 table \$0-230-r;
#X obj 10 4630 table \$0-231-l;
#X obj 200 4630 table \$0-231-r;
#X obj 10 4650 table \$0-232-l;
#X obj 200 4650 table \$0-232-r;
#X obj 10 4670 table \$0-233-l;
#X obj 200 4670 table \$0-233-r;
#X obj 10 4690 table \$0-234-l;
#X obj 200 4690 table \$0-234-r;
#X obj 10 4710 table \$0-235-l;
#X obj 200 4710 table \$0-235-r;
#X obj 10 4730 table \$0-236-l;
#X obj 200 4730 table \$0-236-r;
#X obj 10 4750 table \$0-237-l;
#X obj 200 4750 table \$0-237-r;
#X obj 10 4770 table \$0-238-l;
#X obj 200 4770 table \$0-238-r;
#X obj 10 4790 table \$0-239-l;
#X obj 200 4790 table \$0-239-r;
#X obj 10 4810 table \$0-240-l;
#X obj 200 4810 table \$0-240-r;
#X obj 10 4830 table \$0-241-l;
#X obj 200 4830 table \$0-241-r;
#X obj 10 4850 table \$0-242-l;
#X obj 200 4850 table \$0-242-r;
#X obj 10 4870 table \$0-243-l;
#X obj 200 4870 table \$0-243-r;
#X obj 10 4890 table \$0-244-l;
#X obj 200 4890 table \$0-244-r;
#X obj 10 4910 table \$0-245-l;
#X obj 200 4910 table \$0-245-r;
#X obj 10 4930 table \$0-246-l;
#X obj 200 4930 table \$0-246-r;
#X obj 10 4950 table \$0-247-l;
#X obj 200 4950 table \$0-247-r;
#X obj 10 4970 table \$0-248-l;
#X obj 200 4970 table \$0-248-r;
#X obj 10 4990 table \$0-249-l;
#X obj 200 4990 table \$0-249-r;
#X obj 10 5010 table \$0-250-l;
#X obj 200 5010 table \$0-250-r;
#X obj 10 5030 table \$0-251-l;
#X obj 200 5030 table \$0-251-r;
#X obj 10 5050 table \$0-252-l;
#X obj 200 5050 table \$0-252-r;
#X obj 10 5070 table \$0-253-l;
#X obj 200 5070 table \$0-253-r;
#X obj 10 5090 table \$0-254-l;
#X obj 200 5090 table \$0-254-r;
#X obj 10 5110 table \$0-255-l;
#X obj 200 5110 table \$0-255-r;
#X obj 10 5130 table \$0-256-l;
#X obj 200 5130 table \$0-256-r;
#X obj 10 5150 table \$0-257-l;
#X obj 200 5150 table \$0-257-r;
#X obj 10 5170 table \$0-258-l;
#X obj 200 5170 table \$0-258-r;
#X obj 10 5190 table \$0-259-l;
#X obj 200 5190 table \$0-259-r;
#X obj 10 5210 table \$0-260-l;
#X obj 200 5210 table \$0-260-r;
#X obj 10 5230 table \$0-261-l;
#X obj 200 5230 table \$0-261-r;
#X obj 10 5250 table \$0-262-l;
#X obj 200 5250 table \$0-262-r;
#X obj 10 5270 table \$0-263-l;
#X obj 200 5270 table \$0-263-r;
#X obj 10 5290 table \$0-264-l;
#X obj 200 5290 table \$0-264-r;
#X obj 10 5310 table \$0-265-l;
#X obj 200 5310 table \$0-265-r;
#X obj 10 5330 table \$0-266-l;
#X obj 200 5330 table \$0-266-r;
#X obj 10 5350 table \$0-267-l;
#X obj 200 5350 table \$0-267-r;
#X obj 10 5370 table \$0-268-l;
#X obj 200 5370 table \$0-268-r;
#X obj 10 5390 table \$0-269-l;
#X obj 200 5390 table \$0-269-r;
#X obj 10 5410 table \$0-270-l;
#X obj 200 5410 table \$0-270-r;
#X obj 10 5430 table \$0-271-l;
#X obj 200 5430 table \$0-271-r;
#X obj 10 5450 table \$0-272-l;
#X obj 200 5450 table \$0-272-r;
#X obj 10 5470 table \$0-273-l;
#X obj 200 5470 table \$0-273-r;
#X obj 10 5490 table \$0-274-l;
#X obj 200 5490 table \$0-274-r;
#X obj 10 5510 table \$0-275-l;
#X obj 200 5510 table \$0-275-r;
#X obj 10 5530 table \$0-276-l;
#X obj 200 5530 table \$0-276-r;
#X obj 10 5550 table \$0-277-l;
#X obj 200 5550 table \$0-277-r;
#X obj 10 5570 table \$0-278-l;
#X obj 200 5570 table \$0-278-r;
#X obj 10 5590 table \$0-279-l;
#X obj 200 5590 table \$0-279-r;
#X obj 10 5610 table \$0-280-l;
#X obj 200 5610 table \$0-280-r;
#X obj 10 5630 table \$0-281-l;
#X obj 200 5630 table \$0-281-r;
#X obj 10 5650 table \$0-282-l;
#X obj 200 5650 table \$0-282-r;
#X obj 10 5670 table \$0-283-l;
#X obj 200 5670 table \$0-283-r;
#X obj 10 5690 table \$0-284-l;
#X obj 200 5690 table \$0-284-r;
#X obj 10 5710 table \$0-285-l;
#X obj 200 5710 table \$0-285-r;
#X obj 10 5730 table \$0-286-l;
#X obj 200 5730 table \$0-286-r;
#X obj 10 5750 table \$0-287-l;
#X obj 200 5750 table \$0-287-r;
#X obj 10 5770 table \$0-288-l;
#X obj 200 5770 table \$0-288-r;
#X obj 10 5790 table \$0-289-l;
#X obj 200 5790 table \$0-289-r;
#X obj 10 5810 table \$0-290-l;
#X obj 200 5810 table \$0-290-r;
#X obj 10 5830 table \$0-291-l;
#X obj 200 5830 table \$0-291-r;
#X obj 10 5850 table \$0-292-l;
#X obj 200 5850 table \$0-292-r;
#X obj 10 5870 table \$0-293-l;
#X obj 200 5870 table \$0-293-r;
#X obj 10 5890 table \$0-294-l;
#X obj 200 5890 table \$0-294-r;
#X obj 10 5910 table \$0-295-l;
#X obj 200 5910 table \$0-295-r;
#X obj 10 5930 table \$0-296-l;
#X obj 200 5930 table \$0-296-r;
#X obj 10 5950 table \$0-297-l;
#X obj 200 5950 table \$0-297-r;
#X obj 10 5970 table \$0-298-l;
#X obj 200 5970 table \$0-298-r;
#X obj 10 5990 table \$0-299-l;
#X obj 200 5990 table \$0-299-r;
#X obj 10 6010 table \$0-300-l;
#X obj 200 6010 table \$0-300-r;
#X obj 10 6030 table \$0-301-l;
#X obj 200 6030 table \$0-301-r;
#X obj 10 6050 table \$0-302-l;
#X obj 200 6050 table \$0-302-r;
#X obj 10 6070 table \$0-303-l;
#X obj 200 6070 table \$0-303-r;
#X obj 10 6090 table \$0-304-l;
#X obj 200 6090 table \$0-304-r;
#X obj 10 6110 table \$0-305-l;
#X obj 200 6110 table \$0-305-r;
#X obj 10 6130 table \$0-306-l;
#X obj 200 6130 table \$0-306-r;
#X obj 10 6150 table \$0-307-l;
#X obj 200 6150 table \$0-307-r;
#X obj 10 6170 table \$0-308-l;
#X obj 200 6170 table \$0-308-r;
#X obj 10 6190 table \$0-309-l;
#X obj 200 6190 table \$0-309-r;
#X obj 10 6210 table \$0-310-l;
#X obj 200 6210 table \$0-310-r;
#X obj 10 6230 table \$0-311-l;
#X obj 200 6230 table \$0-311-r;
#X obj 10 6250 table \$0-312-l;
#X obj 200 6250 table \$0-312-r;
#X obj 10 6270 table \$0-313-l;
#X obj 200 6270 table \$0-313-r;
#X obj 10 6290 table \$0-314-l;
#X obj 200 6290 table \$0-314-r;
#X obj 10 6310 table \$0-315-l;
#X obj 200 6310 table \$0-315-r;
#X obj 10 6330 table \$0-316-l;
#X obj 200 6330 table \$0-316-r;
#X obj 10 6350 table \$0-317-l;
#X obj 200 6350 table \$0-317-r;
#X obj 10 6370 table \$0-318-l;
#X obj 200 6370 table \$0-318-r;
#X obj 10 6390 table \$0-319-l;
#X obj 200 6390 table \$0-319-r;
#X obj 10 6410 table \$0-320-l;
#X obj 200 6410 table \$0-320-r;
#X obj 10 6430 table \$0-321-l;
#X obj 200 6430 table \$0-321-r;
#X obj 10 6450 table \$0-322-l;
#X obj 200 6450 table \$0-322-r;
#X obj 10 6470 table \$0-323-l;
#X obj 200 6470 table \$0-323-r;
#X obj 10 6490 table \$0-324-l;
#X obj 200 6490 table \$0-324-r;
#X obj 10 6510 table \$0-325-l;
#X obj 200 6510 table \$0-325-r;
#X obj 10 6530 table \$0-326-l;
#X obj 200 6530 table \$0-326-r;
#X obj 10 6550 table \$0-327-l;
#X obj 200 6550 table \$0-327-r;
#X obj 10 6570 table \$0-328-l;
#X obj 200 6570 table \$0-328-r;
#X obj 10 6590 table \$0-329-l;
#X obj 200 6590 table \$0-329-r;
#X obj 10 6610 table \$0-330-l;
#X obj 200 6610 table \$0-330-r;
#X obj 10 6630 table \$0-331-l;
#X obj 200 6630 table \$0-331-r;
#X obj 10 6650 table \$0-332-l;
#X obj 200 6650 table \$0-332-r;
#X obj 10 6670 table \$0-333-l;
#X obj 200 6670 table \$0-333-r;
#X obj 10 6690 table \$0-334-l;
#X obj 200 6690 table \$0-334-r;
#X obj 10 6710 table \$0-335-l;
#X obj 200 6710 table \$0-335-r;
#X obj 10 6730 table \$0-336-l;
#X obj 200 6730 table \$0-336-r;
#X obj 10 6750 table \$0-337-l;
#X obj 200 6750 table \$0-337-r;
#X obj 10 6770 table \$0-338-l;
#X obj 200 6770 table \$0-338-r;
#X obj 10 6790 table \$0-339-l;
#X obj 200 6790 table \$0-339-r;
#X obj 10 6810 table \$0-340-l;
#X obj 200 6810 table \$0-340-r;
#X obj 10 6830 table \$0-341-l;
#X obj 200 6830 table \$0-341-r;
#X obj 10 6850 table \$0-342-l;
#X obj 200 6850 table \$0-342-r;
#X obj 10 6870 table \$0-343-l;
#X obj 200 6870 table \$0-343-r;
#X obj 10 6890 table \$0-344-l;
#X obj 200 6890 table \$0-344-r;
#X obj 10 6910 table \$0-345-l;
#X obj 200 6910 table \$0-345-r;
#X obj 10 6930 table \$0-346-l;
#X obj 200 6930 table \$0-346-r;
#X obj 10 6950 table \$0-347-l;
#X obj 200 6950 table \$0-347-r;
#X obj 10 6970 table \$0-348-l;
#X obj 200 6970 table \$0-348-r;
#X obj 10 6990 table \$0-349-l;
#X obj 200 6990 table \$0-349-r;
#X obj 10 7010 table \$0-350-l;
#X obj 200 7010 table \$0-350-r;
#X obj 10 7030 table \$0-351-l;
#X obj 200 7030 table \$0-351-r;
#X obj 10 7050 table \$0-352-l;
#X obj 200 7050 table \$0-352-r;
#X obj 10 7070 table \$0-353-l;
#X obj 200 7070 table \$0-353-r;
#X obj 10 7090 table \$0-354-l;
#X obj 200 7090 table \$0-354-r;
#X obj 10 7110 table \$0-355-l;
#X obj 200 7110 table \$0-355-r;
#X obj 10 7130 table \$0-356-l;
#X obj 200 7130 table \$0-356-r;
#X obj 10 7150 table \$0-357-l;
#X obj 200 7150 table \$0-357-r;
#X obj 10 7170 table \$0-358-l;
#X obj 200 7170 table \$0-358-r;
#X obj 10 7190 table \$0-359-l;
#X obj 200 7190 table \$0-359-r;
#X obj 10 7210 table \$0-360-l;
#X obj 200 7210 table \$0-360-r;
#X obj 10 7230 table \$0-361-l;
#X obj 200 7230 table \$0-361-r;
#X obj 10 7250 table \$0-362-l;
#X obj 200 7250 table \$0-362-r;
#X obj 10 7270 table \$0-363-l;
#X obj 200 7270 table \$0-363-r;
#X obj 10 7290 table \$0-364-l;
#X obj 200 7290 table \$0-364-r;
#X obj 10 7310 table \$0-365-l;
#X obj 200 7310 table \$0-365-r;
#X obj 10 7330 table \$0-366-l;
#X obj 200 7330 table \$0-366-r;
#X obj 10 7350 table \$0-367-l;
#X obj 200 7350 table \$0-367-r;
#X obj 10 7370 table \$0-368-l;
#X obj 200 7370 table \$0-368-r;
#X obj 10 7390 table \$0-369-l;
#X obj 200 7390 table \$0-369-r;
#X obj 10 7410 table \$0-370-l;
#X obj 200 7410 table \$0-370-r;
#X obj 10 7430 table \$0-371-l;
#X obj 200 7430 table \$0-371-r;
#X obj 10 7450 table \$0-372-l;
#X obj 200 7450 table \$0-372-r;
#X obj 10 7470 table \$0-373-l;
#X obj 200 7470 table \$0-373-r;
#X obj 10 7490 table \$0-374-l;
#X obj 200 7490 table \$0-374-r;
#X obj 10 7510 table \$0-375-l;
#X obj 200 7510 table \$0-375-r;
#X obj 10 7530 table \$0-376-l;
#X obj 200 7530 table \$0-376-r;
#X obj 10 7550 table \$0-377-l;
#X obj 200 7550 table \$0-377-r;
#X obj 10 7570 table \$0-378-l;
#X obj 200 7570 table \$0-378-r;
#X obj 10 7590 table \$0-379-l;
#X obj 200 7590 table \$0-379-r;
#X obj 10 7610 table \$0-380-l;
#X obj 200 7610 table \$0-380-r;
#X obj 10 7630 table \$0-381-l;
#X obj 200 7630 table \$0-381-r;
#X obj 10 7650 table \$0-382-l;
#X obj 200 7650 table \$0-382-r;
#X obj 10 7670 table \$0-383-l;
#X obj 200 7670 table \$0-383-r;
#X obj 10 7690 table \$0-384-l;
#X obj 200 7690 table \$0-384-r;
#X obj 10 7710 table \$0-385-l;
#X obj 200 7710 table \$0-385-r;
#X obj 10 7730 table \$0-386-l;
#X obj 200 7730 table \$0-386-r;
#X obj 10 7750 table \$0-387-l;
#X obj 200 7750 table \$0-387-r;
#X obj 10 7770 table \$0-388-l;
#X obj 200 7770 table \$0-388-r;
#X obj 10 7790 table \$0-389-l;
#X obj 200 7790 table \$0-389-r;
#X obj 10 7810 table \$0-390-l;
#X obj 200 7810 table \$0-390-r;
#X obj 10 7830 table \$0-391-l;
#X obj 200 7830 table \$0-391-r;
#X obj 10 7850 table \$0-392-l;
#X obj 200 7850 table \$0-392-r;
#X obj 10 7870 table \$0-393-l;
#X obj 200 7870 table \$0-393-r;
#X obj 10 7890 table \$0-394-l;
#X obj 200 7890 table \$0-394-r;
#X obj 10 7910 table \$0-395-l;
#X obj 200 7910 table \$0-395-r;
#X obj 10 7930 table \$0-396-l;
#X obj 200 7930 table \$0-396-r;
#X obj 10 7950 table \$0-397-l;
#X obj 200 7950 table \$0-397-r;
#X obj 10 7970 table \$0-398-l;
#X obj 200 7970 table \$0-398-r;
#X obj 10 7990 table \$0-399-l;
#X obj 200 7990 table \$0-399-r;
#X obj 10 8010 table \$0-400-l;
#X obj 200 8010 table \$0-400-r;
#X obj 10 8030 table \$0-401-l;
#X obj 200 8030 table \$0-401-r;
#X obj 10 8050 table \$0-402-l;
#X obj 200 8050 table \$0-402-r;
#X obj 10 8070 table \$0-403-l;
#X obj 200 8070 table \$0-403-r;
#X obj 10 8090 table \$0-404-l;
#X obj 200 8090 table \$0-404-r;
#X obj 10 8110 table \$0-405-l;
#X obj 200 8110 table \$0-405-r;
#X obj 10 8130 table \$0-406-l;
#X obj 200 8130 table \$0-406-r;
#X obj 10 8150 table \$0-407-l;
#X obj 200 8150 table \$0-407-r;
#X obj 10 8170 table \$0-408-l;
#X obj 200 8170 table \$0-408-r;
#X obj 10 8190 table \$0-409-l;
#X obj 200 8190 table \$0-409-r;
#X obj 10 8210 table \$0-410-l;
#X obj 200 8210 table \$0-410-r;
#X obj 10 8230 table \$0-411-l;
#X obj 200 8230 table \$0-411-r;
#X obj 10 8250 table \$0-412-l;
#X obj 200 8250 table \$0-412-r;
#X obj 10 8270 table \$0-413-l;
#X obj 200 8270 table \$0-413-r;
#X obj 10 8290 table \$0-414-l;
#X obj 200 8290 table \$0-414-r;
#X obj 10 8310 table \$0-415-l;
#X obj 200 8310 table \$0-415-r;
#X obj 10 8330 table \$0-416-l;
#X obj 200 8330 table \$0-416-r;
#X obj 10 8350 table \$0-417-l;
#X obj 200 8350 table \$0-417-r;
#X obj 10 8370 table \$0-418-l;
#X obj 200 8370 table \$0-418-r;
#X obj 10 8390 table \$0-419-l;
#X obj 200 8390 table \$0-419-r;
#X obj 10 8410 table \$0-420-l;
#X obj 200 8410 table \$0-420-r;
#X obj 10 8430 table \$0-421-l;
#X obj 200 8430 table \$0-421-r;
#X obj 10 8450 table \$0-422-l;
#X obj 200 8450 table \$0-422-r;
#X obj 10 8470 table \$0-423-l;
#X obj 200 8470 table \$0-423-r;
#X obj 10 8490 table \$0-424-l;
#X obj 200 8490 table \$0-424-r;
#X obj 10 8510 table \$0-425-l;
#X obj 200 8510 table \$0-425-r;
#X obj 10 8530 table \$0-426-l;
#X obj 200 8530 table \$0-426-r;
#X obj 10 8550 table \$0-427-l;
#X obj 200 8550 table \$0-427-r;
#X obj 10 8570 table \$0-428-l;
#X obj 200 8570 table \$0-428-r;
#X obj 10 8590 table \$0-429-l;
#X obj 200 8590 table \$0-429-r;
#X obj 10 8610 table \$0-430-l;
#X obj 200 8610 table \$0-430-r;
#X obj 10 8630 table \$0-431-l;
#X obj 200 8630 table \$0-431-r;
#X obj 10 8650 table \$0-432-l;
#X obj 200 8650 table \$0-432-r;
#X obj 10 8670 table \$0-433-l;
#X obj 200 8670 table \$0-433-r;
#X obj 10 8690 table \$0-434-l;
#X obj 200 8690 table \$0-434-r;
#X obj 10 8710 table \$0-435-l;
#X obj 200 8710 table \$0-435-r;
#X obj 10 8730 table \$0-436-l;
#X obj 200 8730 table \$0-436-r;
#X obj 10 8750 table \$0-437-l;
#X obj 200 8750 table \$0-437-r;
#X obj 10 8770 table \$0-438-l;
#X obj 200 8770 table \$0-438-r;
#X obj 10 8790 table \$0-439-l;
#X obj 200 8790 table \$0-439-r;
#X obj 10 8810 table \$0-440-l;
#X obj 200 8810 table \$0-440-r;
#X obj 10 8830 table \$0-441-l;
#X obj 200 8830 table \$0-441-r;
#X obj 10 8850 table \$0-442-l;
#X obj 200 8850 table \$0-442-r;
#X obj 10 8870 table \$0-443-l;
#X obj 200 8870 table \$0-443-r;
#X obj 10 8890 table \$0-444-l;
#X obj 200 8890 table \$0-444-r;
#X obj 10 8910 table \$0-445-l;
#X obj 200 8910 table \$0-445-r;
#X obj 10 8930 table \$0-446-l;
#X obj 200 8930 table \$0-446-r;
#X obj 10 8950 table \$0-447-l;
#X obj 200 8950 table \$0-447-r;
#X obj 10 8970 table \$0-448-l;
#X obj 200 8970 table \$0-448-r;
#X obj 10 8990 table \$0-449-l;
#X obj 200 8990 table \$0-449-r;
#X obj 10 9010 table \$0-450-l;
#X obj 200 9010 table \$0-450-r;
#X obj 10 9030 table \$0-451-l;
#X obj 200 9030 table \$0-451-r;
#X obj 10 9050 table \$0-452-l;
#X obj 200 9050 table \$0-452-r;
#X obj 10 9070 table \$0-453-l;
#X obj 200 9070 table \$0-453-r;
#X obj 10 9090 table \$0-454-l;
#X obj 200 9090 table \$0-454-r;
#X obj 10 9110 table \$0-455-l;
#X obj 200 9110 table \$0-455-r;
#X obj 10 9130 table \$0-456-l;
#X obj 200 9130 table \$0-456-r;
#X obj 10 9150 table \$0-457-l;
#X obj 200 9150 table \$0-457-r;
#X obj 10 9170 table \$0-458-l;
#X obj 200 9170 table \$0-458-r;
#X obj 10 9190 table \$0-459-l;
#X obj 200 9190 table \$0-459-r;
#X obj 10 9210 table \$0-460-l;
#X obj 200 9210 table \$0-460-r;
#X obj 10 9230 table \$0-461-l;
#X obj 200 9230 table \$0-461-r;
#X obj 10 9250 table \$0-462-l;
#X obj 200 9250 table \$0-462-r;
#X obj 10 9270 table \$0-463-l;
#X obj 200 9270 table \$0-463-r;
#X obj 10 9290 table \$0-464-l;
#X obj 200 9290 table \$0-464-r;
#X obj 10 9310 table \$0-465-l;
#X obj 200 9310 table \$0-465-r;
#X obj 10 9330 table \$0-466-l;
#X obj 200 9330 table \$0-466-r;
#X obj 10 9350 table \$0-467-l;
#X obj 200 9350 table \$0-467-r;
#X obj 10 9370 table \$0-468-l;
#X obj 200 9370 table \$0-468-r;
#X obj 10 9390 table \$0-469-l;
#X obj 200 9390 table \$0-469-r;
#X obj 10 9410 table \$0-470-l;
#X obj 200 9410 table \$0-470-r;
#X obj 10 9430 table \$0-471-l;
#X obj 200 9430 table \$0-471-r;
#X obj 10 9450 table \$0-472-l;
#X obj 200 9450 table \$0-472-r;
#X obj 10 9470 table \$0-473-l;
#X obj 200 9470 table \$0-473-r;
#X obj 10 9490 table \$0-474-l;
#X obj 200 9490 table \$0-474-r;
#X obj 10 9510 table \$0-475-l;
#X obj 200 9510 table \$0-475-r;
#X obj 10 9530 table \$0-476-l;
#X obj 200 9530 table \$0-476-r;
#X obj 10 9550 table \$0-477-l;
#X obj 200 9550 table \$0-477-r;
#X obj 10 9570 table \$0-478-l;
#X obj 200 9570 table \$0-478-r;
#X obj 10 9590 table \$0-479-l;
#X obj 200 9590 table \$0-479-r;
#X obj 10 9610 table \$0-480-l;
#X obj 200 9610 table \$0-480-r;
#X obj 10 9630 table \$0-481-l;
#X obj 200 9630 table \$0-481-r;
#X obj 10 9650 table \$0-482-l;
#X obj 200 9650 table \$0-482-r;
#X obj 10 9670 table \$0-483-l;
#X obj 200 9670 table \$0-483-r;
#X obj 10 9690 table \$0-484-l;
#X obj 200 9690 table \$0-484-r;
#X obj 10 9710 table \$0-485-l;
#X obj 200 9710 table \$0-485-r;
#X obj 10 9730 table \$0-486-l;
#X obj 200 9730 table \$0-486-r;
#X obj 10 9750 table \$0-487-l;
#X obj 200 9750 table \$0-487-r;
#X obj 10 9770 table \$0-488-l;
#X obj 200 9770 table \$0-488-r;
#X obj 10 9790 table \$0-489-l;
#X obj 200 9790 table \$0-489-r;
#X obj 10 9810 table \$0-490-l;
#X obj 200 9810 table \$0-490-r;
#X obj 10 9830 table \$0-491-l;
#X obj 200 9830 table \$0-491-r;
#X obj 10 9850 table \$0-492-l;
#X obj 200 9850 table \$0-492-r;
#X obj 10 9870 table \$0-493-l;
#X obj 200 9870 table \$0-493-r;
#X obj 10 9890 table \$0-494-l;
#X obj 200 9890 table \$0-494-r;
#X obj 10 9910 table \$0-495-l;
#X obj 200 9910 table \$0-495-r;
#X obj 10 9930 table \$0-496-l;
#X obj 200 9930 table \$0-496-r;
#X obj 10 9950 table \$0-497-l;
#X obj 200 9950 table \$0-497-r;
#X obj 10 9970 table \$0-498-l;
#X obj 200 9970 table \$0-498-r;
#X obj 10 9990 table \$0-499-l;
#X obj 200 9990 table \$0-499-r;
#X obj 10 10040 \$0;
#X obj 10 10010 loadbang;
#X obj 10 10070 outlet;
#X connect 1000 0 1002 0;
#X connect 1001 0 1000 0;
#X restore 306 11 pd shitloadsofsamples;
#X obj 92 12 r eight;
#X connect 1 0 9 0;
#X connect 1 0 22 0;
#X connect 2 0 14 0;
#X connect 3 0 2 0;
#X connect 4 0 3 0;
#X connect 5 0 7 0;
#X connect 6 0 8 0;
#X connect 7 0 4 1;
#X connect 8 0 4 2;
#X connect 9 0 4 0;
#X connect 9 1 7 0;
#X connect 9 2 8 0;
#X connect 12 0 10 1;
#X connect 13 0 12 0;
#X connect 14 0 15 0;
#X connect 14 1 10 0;
#X connect 14 2 12 0;
#X connect 16 0 17 0;
#X connect 17 0 18 0;
#X connect 18 0 17 1;
#X connect 18 0 19 0;
#X connect 18 0 20 0;
#X connect 20 0 24 0;
#X connect 22 0 21 0;
#X connect 23 0 1 0;
#X connect 25 0 0 0;
#X connect 26 0 1 0;
#X restore 4 42 pd samples;
#N canvas 0 0 495 554 calcultron 0;
#N canvas 0 0 495 554 clock 0;
#X obj 126 202 metro;
#X obj 157 135 expr 60000 / $f1;
#X obj 9 14 tgl 25 0 empty empty empty 17 7 0 10 -66577 -241291 -1
0 1;
#X obj 57 107 select 0 1;
#X msg 57 171 0;
#X msg 47 213 -1;
#X msg 93 169 1;
#X obj 89 130 t b b;
#X obj 123 227 f;
#X obj 151 230 + 1;
#X obj 124 265 s tick;
#X obj 192 264 s spacing;
#X obj 37 14 nbx 3 25 -1e+37 1e+37 0 0 empty empty bpm 0 -8 0 10 -66577
-241291 -1 370 256;
#X obj 175 10 loadbang;
#X obj 112 9 r start;
#X floatatom 182 288 5 0 0 0 - - -, f 5;
#X obj 339 12 loadbang;
#X msg 340 89 \; pd dsp 1;
#X msg 175 28 370;
#X connect 0 0 8 0;
#X connect 1 0 0 1;
#X connect 1 0 11 0;
#X connect 2 0 3 0;
#X connect 3 0 4 0;
#X connect 3 1 7 0;
#X connect 4 0 0 0;
#X connect 5 0 8 0;
#X connect 6 0 0 0;
#X connect 7 0 6 0;
#X connect 7 1 5 0;
#X connect 8 0 9 0;
#X connect 8 0 10 0;
#X connect 8 0 15 0;
#X connect 9 0 8 1;
#X connect 12 0 1 0;
#X connect 13 0 18 0;
#X connect 14 0 2 0;
#X connect 16 0 17 0;
#X connect 18 0 12 0;
#X restore 40 40 pd clock;
#X restore 4 23 pd calcultron;
#N canvas 512 22 495 554 keys 0;
#N canvas 0 22 1276 358 qwerty 0;
#X obj 91 8 key;
#X obj 161 7 keyup;
#X floatatom 42 50 5 0 0 0 - - -, f 5;
#X obj 88 36 select 113;
#X obj 153 36 select 113;
#X msg 92 65 1;
#X msg 149 65 0;
#X obj 94 207 outlet;
#X obj 104 118 tgl 15 0 empty empty empty 17 7 0 10 -262144 -1 -1 0
1;
#X obj 220 8 key;
#X obj 290 7 keyup;
#X msg 221 65 1;
#X msg 278 65 0;
#X obj 223 207 outlet;
#X obj 119 118 tgl 15 0 empty empty empty 17 7 0 10 -262144 -1 -1 0
1;
#X obj 218 36 select 119;
#X obj 282 35 select 119;
#X obj 349 8 key;
#X obj 419 7 keyup;
#X msg 350 65 1;
#X msg 407 65 0;
#X obj 352 207 outlet;
#X obj 134 118 tgl 15 0 empty empty empty 17 7 0 10 -262144 -1 -1 0
1;
#X obj 478 8 key;
#X obj 548 7 keyup;
#X msg 479 65 1;
#X msg 536 65 0;
#X obj 481 207 outlet;
#X obj 149 118 tgl 15 0 empty empty empty 17 7 0 10 -262144 -1 -1 0
1;
#X obj 346 36 select 101;
#X obj 411 36 select 101;
#X obj 476 36 select 114;
#X obj 541 35 select 114;
#X obj 609 9 key;
#X obj 679 8 keyup;
#X msg 610 66 1;
#X msg 667 66 0;
#X obj 612 208 outlet;
#X obj 164 118 tgl 15 0 empty empty empty 17 7 0 10 -262144 -1 -1 0
1;
#X obj 738 9 key;
#X obj 808 8 keyup;
#X msg 739 66 1;
#X msg 796 66 0;
#X obj 741 208 outlet;
#X obj 179 118 tgl 15 0 empty empty empty 17 7 0 10 -262144 -1 -1 0
1;
#X obj 867 9 key;
#X obj 937 8 keyup;
#X msg 868 66 1;
#X msg 925 66 0;
#X obj 870 208 outlet;
#X obj 194 118 tgl 15 0 empty empty empty 17 7 0 10 -262144 -1 -1 0
1;
#X obj 996 9 key;
#X obj 1066 8 keyup;
#X msg 997 66 1;
#X msg 1054 66 0;
#X obj 999 208 outlet;
#X obj 209 118 tgl 15 0 empty empty empty 17 7 0 10 -262144 -1 -1 0
1;
#X obj 606 37 select 116;
#X obj 671 37 select 116;
#X obj 736 37 select 121;
#X obj 801 36 select 121;
#X obj 864 37 select 117;
#X obj 929 37 select 117;
#X obj 994 39 select 105;
#X obj 1059 37 select 105;
#X obj 1128 9 key;
#X obj 1198 8 keyup;
#X msg 1129 66 1;
#X msg 1186 66 0;
#X obj 1131 208 outlet;
#X obj 224 118 tgl 15 0 empty empty empty 17 7 0 10 -262144 -1 -1 0
1;
#X obj 1257 9 key;
#X obj 1327 8 keyup;
#X msg 1258 66 1;
#X msg 1315 66 0;
#X obj 1260 208 outlet;
#X obj 239 118 tgl 15 0 empty empty empty 17 7 0 10 -262144 -1 -1 0
1;
#X obj 1125 37 select 111;
#X obj 1190 37 select 111;
#X obj 1255 39 select 112;
#X obj 1321 37 select 112;
#X connect 0 0 2 0;
#X connect 0 0 3 0;
#X connect 1 0 4 0;
#X connect 3 0 5 0;
#X connect 4 0 6 0;
#X connect 5 0 8 0;
#X connect 6 0 8 0;
#X connect 8 0 7 0;
#X connect 9 0 15 0;
#X connect 10 0 16 0;
#X connect 11 0 14 0;
#X connect 12 0 14 0;
#X connect 14 0 13 0;
#X connect 15 0 11 0;
#X connect 16 0 12 0;
#X connect 17 0 29 0;
#X connect 18 0 30 0;
#X connect 19 0 22 0;
#X connect 20 0 22 0;
#X connect 22 0 21 0;
#X connect 23 0 31 0;
#X connect 24 0 32 0;
#X connect 25 0 28 0;
#X connect 26 0 28 0;
#X connect 28 0 27 0;
#X connect 29 0 19 0;
#X connect 30 0 20 0;
#X connect 31 0 25 0;
#X connect 32 0 26 0;
#X connect 33 0 57 0;
#X connect 34 0 58 0;
#X connect 35 0 38 0;
#X connect 36 0 38 0;
#X connect 38 0 37 0;
#X connect 39 0 59 0;
#X connect 40 0 60 0;
#X connect 41 0 44 0;
#X connect 42 0 44 0;
#X connect 44 0 43 0;
#X connect 45 0 61 0;
#X connect 46 0 62 0;
#X connect 47 0 50 0;
#X connect 48 0 50 0;
#X connect 50 0 49 0;
#X connect 51 0 63 0;
#X connect 52 0 64 0;
#X connect 53 0 56 0;
#X connect 54 0 56 0;
#X connect 56 0 55 0;
#X connect 57 0 35 0;
#X connect 58 0 36 0;
#X connect 59 0 41 0;
#X connect 60 0 42 0;
#X connect 61 0 47 0;
#X connect 62 0 48 0;
#X connect 63 0 53 0;
#X connect 64 0 54 0;
#X connect 65 0 77 0;
#X connect 66 0 78 0;
#X connect 67 0 70 0;
#X connect 68 0 70 0;
#X connect 70 0 69 0;
#X connect 71 0 79 0;
#X connect 72 0 80 0;
#X connect 73 0 76 0;
#X connect 74 0 76 0;
#X connect 76 0 75 0;
#X connect 77 0 67 0;
#X connect 78 0 68 0;
#X connect 79 0 73 0;
#X connect 80 0 74 0;
#X coords 0 -1 1 1 160 40 1 100 100;
#X restore 259 30 pd qwerty;
#N canvas 0 22 1280 366 asdfgh 0;
#X obj 91 8 key;
#X obj 161 7 keyup;
#X floatatom 42 50 5 0 0 0 - - -, f 5;
#X msg 92 65 1;
#X msg 149 65 0;
#X obj 94 207 outlet;
#X obj 104 118 tgl 15 0 empty empty empty 17 7 0 10 -262144 -1 -1 0
1;
#X obj 220 8 key;
#X obj 290 7 keyup;
#X msg 221 65 1;
#X msg 278 65 0;
#X obj 223 207 outlet;
#X obj 119 118 tgl 15 0 empty empty empty 17 7 0 10 -262144 -1 -1 0
1;
#X obj 349 8 key;
#X obj 419 7 keyup;
#X msg 350 65 1;
#X msg 407 65 0;
#X obj 352 207 outlet;
#X obj 134 118 tgl 15 0 empty empty empty 17 7 0 10 -262144 -1 -1 0
1;
#X obj 478 8 key;
#X obj 548 7 keyup;
#X msg 479 65 1;
#X msg 536 65 0;
#X obj 481 207 outlet;
#X obj 149 118 tgl 15 0 empty empty empty 17 7 0 10 -262144 -1 -1 0
1;
#X obj 609 9 key;
#X obj 679 8 keyup;
#X msg 610 66 1;
#X msg 667 66 0;
#X obj 612 208 outlet;
#X obj 164 118 tgl 15 0 empty empty empty 17 7 0 10 -262144 -1 -1 0
1;
#X obj 738 9 key;
#X obj 808 8 keyup;
#X msg 739 66 1;
#X msg 796 66 0;
#X obj 741 208 outlet;
#X obj 179 118 tgl 15 0 empty empty empty 17 7 0 10 -262144 -1 -1 0
1;
#X obj 867 9 key;
#X obj 937 8 keyup;
#X msg 868 66 1;
#X msg 925 66 0;
#X obj 870 208 outlet;
#X obj 194 118 tgl 15 0 empty empty empty 17 7 0 10 -262144 -1 -1 0
1;
#X obj 996 9 key;
#X obj 1066 8 keyup;
#X msg 997 66 1;
#X msg 1054 66 0;
#X obj 999 208 outlet;
#X obj 209 118 tgl 15 0 empty empty empty 17 7 0 10 -262144 -1 -1 0
1;
#X obj 1128 9 key;
#X obj 1198 8 keyup;
#X msg 1129 66 1;
#X msg 1186 66 0;
#X obj 1131 208 outlet;
#X obj 224 118 tgl 15 0 empty empty empty 17 7 0 10 -262144 -1 -1 0
1;
#X obj 1257 9 key;
#X obj 1327 8 keyup;
#X msg 1258 66 1;
#X msg 1315 66 0;
#X obj 1212 208 outlet;
#X obj 239 118 tgl 15 0 empty empty empty 17 7 0 10 -262144 -1 -1 0
1;
#X obj 88 36 select 97;
#X obj 153 36 select 97;
#X obj 218 36 select 115;
#X obj 282 35 select 115;
#X obj 346 36 select 100;
#X obj 411 38 select 100;
#X obj 476 36 select 102;
#X obj 541 35 select 102;
#X obj 606 37 select 103;
#X obj 671 37 select 103;
#X obj 736 37 select 104;
#X obj 801 36 select 104;
#X obj 864 37 select 106;
#X obj 929 37 select 106;
#X obj 994 39 select 107;
#X obj 1059 38 select 107;
#X obj 1125 37 select 108;
#X obj 1190 37 select 108;
#X obj 1255 39 select 59;
#X obj 1321 37 select 59;
#X connect 0 0 2 0;
#X connect 0 0 61 0;
#X connect 1 0 62 0;
#X connect 3 0 6 0;
#X connect 4 0 6 0;
#X connect 6 0 5 0;
#X connect 7 0 63 0;
#X connect 8 0 64 0;
#X connect 9 0 12 0;
#X connect 10 0 12 0;
#X connect 12 0 11 0;
#X connect 13 0 65 0;
#X connect 14 0 66 0;
#X connect 15 0 18 0;
#X connect 16 0 18 0;
#X connect 18 0 17 0;
#X connect 19 0 67 0;
#X connect 20 0 68 0;
#X connect 21 0 24 0;
#X connect 22 0 24 0;
#X connect 24 0 23 0;
#X connect 25 0 69 0;
#X connect 26 0 70 0;
#X connect 27 0 30 0;
#X connect 28 0 30 0;
#X connect 30 0 29 0;
#X connect 31 0 71 0;
#X connect 32 0 72 0;
#X connect 33 0 36 0;
#X connect 34 0 36 0;
#X connect 36 0 35 0;
#X connect 37 0 73 0;
#X connect 38 0 74 0;
#X connect 39 0 42 0;
#X connect 40 0 42 0;
#X connect 42 0 41 0;
#X connect 43 0 75 0;
#X connect 44 0 76 0;
#X connect 45 0 48 0;
#X connect 46 0 48 0;
#X connect 48 0 47 0;
#X connect 49 0 77 0;
#X connect 50 0 78 0;
#X connect 51 0 54 0;
#X connect 52 0 54 0;
#X connect 54 0 53 0;
#X connect 55 0 79 0;
#X connect 56 0 80 0;
#X connect 57 0 60 0;
#X connect 58 0 60 0;
#X connect 60 0 59 0;
#X connect 61 0 3 0;
#X connect 62 0 4 0;
#X connect 63 0 9 0;
#X connect 64 0 10 0;
#X connect 65 0 15 0;
#X connect 66 0 16 0;
#X connect 67 0 21 0;
#X connect 68 0 22 0;
#X connect 69 0 27 0;
#X connect 70 0 28 0;
#X connect 71 0 33 0;
#X connect 72 0 34 0;
#X connect 73 0 39 0;
#X connect 74 0 40 0;
#X connect 75 0 45 0;
#X connect 76 0 46 0;
#X connect 77 0 51 0;
#X connect 78 0 52 0;
#X connect 79 0 57 0;
#X connect 80 0 58 0;
#X coords 0 -1 1 1 160 40 1 100 100;
#X restore 496 18 pd asdfgh;
#X obj 234 97 s w;
#X obj 259 97 s e;
#X obj 284 98 s r;
#X obj 208 97 s q;
#X obj 312 97 s t;
#X obj 338 97 s y;
#X obj 363 97 s u;
#X obj 388 98 s i;
#X obj 413 97 s o;
#X obj 438 97 s p;
#X obj 488 97 s a;
#X obj 514 97 s s;
#X obj 539 97 s d;
#X obj 564 98 s f;
#X obj 592 97 s g;
#X obj 618 97 s h;
#X obj 643 97 s j;
#X obj 668 98 s k;
#X obj 693 97 s l;
#X obj 718 96 s colon;
#X obj 101 198 s one;
#X obj 141 198 s two;
#X obj 181 198 s three;
#X obj 236 198 s four;
#X obj 48 246 s start;
#N canvas 215 382 697 434 numberkeysofdooooo000oooooooom 0;
#X obj 179 65 key;
#X obj 168 184 outlet;
#X obj 223 183 outlet;
#X obj 269 184 outlet;
#X obj 313 184 outlet;
#X floatatom 118 90 5 0 0 0 - - -, f 5;
#X obj 102 182 outlet;
#X obj 363 183 outlet;
#X obj 409 184 outlet;
#X obj 453 184 outlet;
#X obj 503 183 outlet;
#X obj 549 184 outlet;
#X obj 595 184 outlet;
#X obj 177 85 select 49 50 51 52 96 53 54 55 56 59 48;
#X connect 0 0 5 0;
#X connect 0 0 13 0;
#X connect 13 0 1 0;
#X connect 13 1 2 0;
#X connect 13 2 3 0;
#X connect 13 3 4 0;
#X connect 13 4 6 0;
#X connect 13 5 7 0;
#X connect 13 6 8 0;
#X connect 13 7 9 0;
#X connect 13 8 10 0;
#X connect 13 9 11 0;
#X connect 13 10 12 0;
#X restore 139 134 pd numberkeysofdooooo000oooooooom;
#X obj 282 199 s five;
#X obj 331 198 s six;
#X obj 371 198 s seven;
#X obj 426 198 s eight;
#X obj 485 198 s nine;
#X obj 539 198 s zero;
#X connect 0 0 5 0;
#X connect 0 1 2 0;
#X connect 0 2 3 0;
#X connect 0 3 4 0;
#X connect 0 4 6 0;
#X connect 0 5 7 0;
#X connect 0 6 8 0;
#X connect 0 7 9 0;
#X connect 0 8 10 0;
#X connect 0 9 11 0;
#X connect 1 0 12 0;
#X connect 1 1 13 0;
#X connect 1 2 14 0;
#X connect 1 3 15 0;
#X connect 1 4 16 0;
#X connect 1 5 17 0;
#X connect 1 6 18 0;
#X connect 1 7 19 0;
#X connect 1 8 20 0;
#X connect 1 9 21 0;
#X connect 27 0 26 0;
#X connect 27 1 22 0;
#X connect 27 2 23 0;
#X connect 27 3 24 0;
#X connect 27 4 25 0;
#X connect 27 5 28 0;
#X connect 27 6 29 0;
#X connect 27 7 30 0;
#X connect 27 8 31 0;
#X connect 27 9 32 0;
#X connect 27 10 33 0;
#X restore 52 4 pd keys;
#N canvas 0 0 495 554 sampledriver 0;
#N canvas 512 0 495 554 loop_a 0;
#X obj 348 574 tabread4~;
#X obj 417 574 tabread4~;
#X obj 347 697 outlet~;
#X obj 418 697 outlet~;
#X floatatom 162 116 3 0 199 0 sample - -, f 3;
#X obj 389 269 *;
#X obj 388 492 vline~;
#X obj 394 442 pack f f f;
#X obj 427 323 *;
#X msg 389 468 \$1 \, \$2 \$3;
#X obj 163 176 f;
#X obj 347 671 hip~ 5;
#X obj 418 674 hip~ 5;
#X obj 348 648 *~;
#X obj 418 648 *~;
#X obj 381 617 vline~;
#N canvas 822 438 474 324 shuffle 0;
#X obj 111 6 inlet;
#X obj 109 274 outlet;
#X obj 61 231 spigot;
#X obj 158 231 spigot;
#X obj 94 201 tgl 15 0 empty empty empty 17 7 0 10 -262144 -1 -1 1
1;
#X obj 18 36 loadbang;
#X msg 21 60 1;
#X obj 94 146 * -1;
#X obj 89 173 + 1;
#X obj 261 52 tgl 15 0 empty empty empty 17 7 0 10 -262144 -1 -1 0
1;
#X obj 173 15 inlet;
#X obj 268 24 inlet;
#X obj 147 146 mod 16;
#X obj 135 75 random 256;
#X msg 156 45 bang;
#X connect 0 0 2 0;
#X connect 0 0 14 0;
#X connect 2 0 1 0;
#X connect 3 0 1 0;
#X connect 4 0 2 1;
#X connect 5 0 6 0;
#X connect 6 0 4 0;
#X connect 7 0 8 0;
#X connect 8 0 4 0;
#X connect 9 0 7 0;
#X connect 9 0 3 1;
#X connect 10 0 12 1;
#X connect 11 0 9 0;
#X connect 12 0 3 0;
#X connect 13 0 12 0;
#X connect 14 0 13 0;
#X restore 94 330 pd shuffle;
#N canvas 0 22 466 316 freeze 0;
#X obj 65 61 inlet;
#X obj 60 244 outlet;
#X obj 33 206 spigot;
#X obj 62 179 tgl 15 0 empty empty empty 17 7 0 10 -262144 -1 -1 1
1;
#X msg 16 45 1;
#X obj 19 16 loadbang;
#X obj 64 149 + 1;
#X obj 65 124 * -1;
#X obj 142 123 spigot;
#X obj 136 148 f;
#X obj 137 206 spigot;
#X obj 96 106 t b;
#X obj 288 49 inlet;
#X obj 278 74 tgl 15 0 empty empty empty 17 7 0 10 -262144 -1 -1 0
1;
#X connect 0 0 2 0;
#X connect 0 0 11 0;
#X connect 0 0 8 0;
#X connect 2 0 1 0;
#X connect 3 0 2 1;
#X connect 3 0 8 1;
#X connect 4 0 3 0;
#X connect 5 0 4 0;
#X connect 6 0 3 0;
#X connect 7 0 6 0;
#X connect 8 0 9 0;
#X connect 9 0 10 0;
#X connect 10 0 1 0;
#X connect 11 0 9 0;
#X connect 12 0 13 0;
#X connect 13 0 7 0;
#X connect 13 0 10 1;
#X restore 95 355 pd freeze;
#X obj 416 176 f;
#X obj 406 301 + 1;
#X obj 97 496 t f f b;
#X obj 465 120 / 44.1;
#N canvas 138 530 1169 388 stutter 0;
#X obj 20 0 inlet;
#X obj 108 292 outlet;
#X obj 53 228 spigot;
#X obj 153 251 spigot;
#X obj 86 165 + 1;
#X obj 86 141 * -1;
#X obj 86 195 tgl 15 0 empty empty empty 17 7 0 10 -262144 -1 -1 1
1;
#X obj 308 28 inlet;
#X obj 302 54 tgl 15 0 empty empty empty 17 7 0 10 -262144 -1 -1 0
1;
#X obj 215 9 loadbang;
#X msg 213 36 1;
#X obj 225 88 int;
#X obj 125 65 metro;
#X obj 94 -3 inlet;
#X obj 130 22 tgl 15 0 empty empty empty 17 7 0 10 -262144 -1 -1 0
1;
#X msg 164 168 0;
#X msg 193 168 2;
#X msg 221 168 4;
#X msg 248 166 6;
#X msg 279 169 8;
#X msg 308 168 10;
#X msg 336 169 12;
#X msg 365 169 14;
#X msg 393 170 16;
#X msg 421 169 18;
#X msg 449 169 20;
#X msg 478 169 22;
#X msg 509 169 24;
#X msg 538 171 26;
#X msg 570 168 28;
#X msg 602 172 30;
#X msg 635 173 32;
#X obj 934 310 f;
#X floatatom 196 312 5 0 0 0 - - -, f 5;
#X obj 491 46 select 0 2 4 6 8 10 12 14 16 18 20 22 24 26 28 30 32
34 36 38 40 42 44 46 48 50 52 54 56 58 60 62 64;
#X msg 672 170 34;
#X msg 700 170 36;
#X msg 729 171 38;
#X msg 760 170 40;
#X msg 789 172 42;
#X msg 821 169 44;
#X msg 853 173 46;
#X msg 886 174 48;
#X msg 916 174 50;
#X msg 947 171 52;
#X msg 979 175 54;
#X msg 1013 176 56;
#X msg 1025 205 58;
#X msg 1056 202 60;
#X msg 1088 206 62;
#X msg 1122 207 64;
#X msg 71 51 bang;
#X connect 0 0 2 0;
#X connect 0 0 34 0;
#X connect 0 0 51 0;
#X connect 2 0 1 0;
#X connect 2 0 33 0;
#X connect 3 0 1 0;
#X connect 3 0 33 0;
#X connect 4 0 6 0;
#X connect 5 0 4 0;
#X connect 6 0 2 1;
#X connect 7 0 8 0;
#X connect 8 0 11 1;
#X connect 9 0 10 0;
#X connect 10 0 6 0;
#X connect 11 0 3 1;
#X connect 11 0 5 0;
#X connect 11 0 14 0;
#X connect 12 0 32 0;
#X connect 13 0 12 1;
#X connect 14 0 12 0;
#X connect 15 0 32 0;
#X connect 16 0 32 0;
#X connect 17 0 32 0;
#X connect 18 0 32 0;
#X connect 19 0 32 0;
#X connect 20 0 32 0;
#X connect 21 0 32 0;
#X connect 22 0 32 0;
#X connect 23 0 32 0;
#X connect 24 0 32 0;
#X connect 25 0 32 0;
#X connect 26 0 32 0;
#X connect 27 0 32 0;
#X connect 28 0 32 0;
#X connect 29 0 32 0;
#X connect 30 0 32 0;
#X connect 31 0 32 0;
#X connect 32 0 3 0;
#X connect 34 0 15 0;
#X connect 34 1 16 0;
#X connect 34 2 17 0;
#X connect 34 3 18 0;
#X connect 34 4 19 0;
#X connect 34 5 20 0;
#X connect 34 6 21 0;
#X connect 34 7 22 0;
#X connect 34 8 23 0;
#X connect 34 9 24 0;
#X connect 34 10 25 0;
#X connect 34 11 26 0;
#X connect 34 12 27 0;
#X connect 34 13 28 0;
#X connect 34 14 29 0;
#X connect 34 15 30 0;
#X connect 34 16 31 0;
#X connect 34 17 35 0;
#X connect 34 18 36 0;
#X connect 34 19 37 0;
#X connect 34 20 38 0;
#X connect 34 21 39 0;
#X connect 34 22 40 0;
#X connect 34 23 41 0;
#X connect 34 24 42 0;
#X connect 34 25 43 0;
#X connect 34 26 44 0;
#X connect 34 27 45 0;
#X connect 34 28 46 0;
#X connect 34 29 47 0;
#X connect 34 30 48 0;
#X connect 34 31 49 0;
#X connect 34 32 50 0;
#X connect 35 0 32 0;
#X connect 36 0 32 0;
#X connect 37 0 32 0;
#X connect 38 0 32 0;
#X connect 39 0 32 0;
#X connect 40 0 32 0;
#X connect 41 0 32 0;
#X connect 42 0 32 0;
#X connect 43 0 32 0;
#X connect 44 0 32 0;
#X connect 45 0 32 0;
#X connect 46 0 32 0;
#X connect 47 0 32 0;
#X connect 48 0 32 0;
#X connect 49 0 32 0;
#X connect 50 0 32 0;
#X connect 51 0 11 0;
#X restore 112 394 pd stutter;
#X obj 437 216 / 16;
#X obj 163 255 * 16;
#X obj 229 351 /;
#N canvas 0 22 545 396 rounding 0;
#X obj 217 127 moses 1.5;
#X msg 180 130 0.5;
#X msg 217 151 1;
#X msg 249 174 2;
#X obj 252 151 moses 3;
#X obj 287 173 moses 6;
#X msg 287 196 4;
#X obj 324 199 moses 12;
#X msg 321 221 8;
#X obj 359 220 moses 24;
#X msg 359 244 16;
#X obj 256 294 outlet;
#X obj 391 247 moses 48;
#X msg 392 271 32;
#X msg 431 282 64;
#X obj 22 6 inlet;
#X obj 182 105 moses 0.75;
#X obj 146 77 moses 0.375;
#X msg 146 101 0.25;
#X obj 113 55 moses 0.1875;
#X msg 97 83 0.125;
#X obj 66 36 moses 0.09375;
#X msg 51 62 0.0625;
#X connect 0 0 2 0;
#X connect 0 1 4 0;
#X connect 1 0 11 0;
#X connect 2 0 11 0;
#X connect 3 0 11 0;
#X connect 4 0 3 0;
#X connect 4 1 5 0;
#X connect 5 0 6 0;
#X connect 5 1 7 0;
#X connect 6 0 11 0;
#X connect 7 0 8 0;
#X connect 7 1 9 0;
#X connect 8 0 11 0;
#X connect 9 0 10 0;
#X connect 9 1 12 0;
#X connect 10 0 11 0;
#X connect 12 0 13 0;
#X connect 12 1 14 0;
#X connect 13 0 11 0;
#X connect 14 0 11 0;
#X connect 15 0 21 0;
#X connect 16 0 1 0;
#X connect 16 1 0 0;
#X connect 17 0 18 0;
#X connect 17 1 16 0;
#X connect 18 0 11 0;
#X connect 19 0 20 0;
#X connect 19 1 17 0;
#X connect 20 0 11 0;
#X connect 21 0 22 0;
#X connect 21 1 19 0;
#X connect 22 0 11 0;
#X restore 211 405 pd rounding;
#X obj 220 467 * 16;
#X obj 220 520 t f b;
#X obj 170 228 * 1;
#X obj 32 139 mod 16;
#X obj 139 307 / 2;
#X msg 380 596 0 5 \, 1 5;
#X msg 202 150 bang;
#X msg 98 170 bang;
#X floatatom 163 131 2 0 0 0 length - -, f 2;
#X floatatom 163 144 2 0 0 0 slice - -, f 2;
#X obj 21 59 r tick;
#X obj 72 56 r spacing;
#X text 181 25 samp up;
#X text 319 8 freeze;
#X text 369 10 rand;
#X text 405 10 stutter;
#X obj 240 69 r total_loops;
#X obj 201 94 random;
#X obj 172 288 t b f;
#X obj 325 28 inlet;
#X obj 365 27 inlet;
#X obj 409 27 inlet;
#X obj 197 47 inlet;
#X obj 407 70 tabread \$0-lengths;
#X obj 475 348 pack f f;
#X msg 467 396 set \$1-\$2-r;
#X msg 477 443 set \$1-\$2-l;
#X obj 464 260 t b f;
#X obj 456 300 r Storage_ID;
#X obj 459 319 int;
#X connect 0 0 13 0;
#X connect 1 0 14 0;
#X connect 4 0 33 0;
#X connect 4 0 50 0;
#X connect 4 0 54 0;
#X connect 5 0 7 0;
#X connect 6 0 0 0;
#X connect 6 0 1 0;
#X connect 7 0 9 0;
#X connect 8 0 7 1;
#X connect 9 0 6 0;
#X connect 10 0 7 2;
#X connect 10 0 29 0;
#X connect 10 0 31 0;
#X connect 11 0 2 0;
#X connect 12 0 3 0;
#X connect 13 0 11 0;
#X connect 14 0 12 0;
#X connect 15 0 14 1;
#X connect 15 0 13 1;
#X connect 16 0 17 0;
#X connect 17 0 22 0;
#X connect 18 0 23 0;
#X connect 19 0 8 0;
#X connect 20 0 5 0;
#X connect 20 0 36 0;
#X connect 20 1 19 0;
#X connect 20 2 32 0;
#X connect 21 0 25 0;
#X connect 22 0 20 0;
#X connect 23 0 5 1;
#X connect 23 0 8 1;
#X connect 24 0 45 0;
#X connect 25 0 26 0;
#X connect 26 0 27 0;
#X connect 27 0 28 0;
#X connect 27 0 16 1;
#X connect 27 0 30 1;
#X connect 27 0 35 0;
#X connect 28 0 23 1;
#X connect 28 1 18 0;
#X connect 29 0 24 0;
#X connect 30 0 16 0;
#X connect 31 0 22 1;
#X connect 32 0 15 0;
#X connect 33 0 10 0;
#X connect 34 0 4 0;
#X connect 37 0 30 0;
#X connect 37 0 34 0;
#X connect 38 0 10 0;
#X connect 43 0 44 1;
#X connect 44 0 4 0;
#X connect 45 0 25 0;
#X connect 45 1 25 1;
#X connect 46 0 17 1;
#X connect 47 0 16 2;
#X connect 48 0 22 2;
#X connect 49 0 44 0;
#X connect 50 0 18 0;
#X connect 50 0 21 0;
#X connect 51 0 52 0;
#X connect 51 0 53 0;
#X connect 52 0 0 0;
#X connect 53 0 1 0;
#X connect 54 0 56 0;
#X connect 54 1 51 1;
#X connect 55 0 56 0;
#X connect 56 0 51 0;
#X coords 0 -1 1 1 85 60 1 100 100;
#X restore 126 77 pd loop_a;
#N canvas 0 0 495 554 loop_b 0;
#X obj 348 574 tabread4~;
#X obj 417 574 tabread4~;
#X obj 347 697 outlet~;
#X obj 418 697 outlet~;
#X floatatom 162 116 3 0 199 0 sample - -, f 3;
#X obj 389 269 *;
#X obj 388 492 vline~;
#X obj 394 442 pack f f f;
#X obj 427 323 *;
#X msg 389 468 \$1 \, \$2 \$3;
#X obj 163 176 f;
#X obj 347 671 hip~ 5;
#X obj 418 674 hip~ 5;
#X obj 348 648 *~;
#X obj 418 648 *~;
#X obj 381 617 vline~;
#N canvas 822 438 474 324 shuffle 0;
#X obj 111 6 inlet;
#X obj 109 274 outlet;
#X obj 61 231 spigot;
#X obj 158 231 spigot;
#X obj 94 201 tgl 15 0 empty empty empty 17 7 0 10 -262144 -1 -1 1
1;
#X obj 18 36 loadbang;
#X msg 21 60 1;
#X obj 94 146 * -1;
#X obj 89 173 + 1;
#X obj 261 52 tgl 15 0 empty empty empty 17 7 0 10 -262144 -1 -1 0
1;
#X obj 173 15 inlet;
#X obj 268 24 inlet;
#X obj 147 146 mod 16;
#X obj 135 75 random 256;
#X msg 156 45 bang;
#X connect 0 0 2 0;
#X connect 0 0 14 0;
#X connect 2 0 1 0;
#X connect 3 0 1 0;
#X connect 4 0 2 1;
#X connect 5 0 6 0;
#X connect 6 0 4 0;
#X connect 7 0 8 0;
#X connect 8 0 4 0;
#X connect 9 0 7 0;
#X connect 9 0 3 1;
#X connect 10 0 12 1;
#X connect 11 0 9 0;
#X connect 12 0 3 0;
#X connect 13 0 12 0;
#X connect 14 0 13 0;
#X restore 94 330 pd shuffle;
#N canvas 0 22 466 316 freeze 0;
#X obj 65 61 inlet;
#X obj 60 244 outlet;
#X obj 33 206 spigot;
#X obj 62 179 tgl 15 0 empty empty empty 17 7 0 10 -262144 -1 -1 1
1;
#X msg 16 45 1;
#X obj 19 16 loadbang;
#X obj 64 149 + 1;
#X obj 65 124 * -1;
#X obj 142 123 spigot;
#X obj 136 148 f;
#X obj 137 206 spigot;
#X obj 96 106 t b;
#X obj 288 49 inlet;
#X obj 278 74 tgl 15 0 empty empty empty 17 7 0 10 -262144 -1 -1 0
1;
#X connect 0 0 2 0;
#X connect 0 0 11 0;
#X connect 0 0 8 0;
#X connect 2 0 1 0;
#X connect 3 0 2 1;
#X connect 3 0 8 1;
#X connect 4 0 3 0;
#X connect 5 0 4 0;
#X connect 6 0 3 0;
#X connect 7 0 6 0;
#X connect 8 0 9 0;
#X connect 9 0 10 0;
#X connect 10 0 1 0;
#X connect 11 0 9 0;
#X connect 12 0 13 0;
#X connect 13 0 7 0;
#X connect 13 0 10 1;
#X restore 95 355 pd freeze;
#X obj 416 176 f;
#X obj 406 301 + 1;
#X obj 97 496 t f f b;
#X obj 465 120 / 44.1;
#N canvas 138 530 1169 388 stutter 0;
#X obj 20 0 inlet;
#X obj 108 292 outlet;
#X obj 53 228 spigot;
#X obj 153 251 spigot;
#X obj 86 165 + 1;
#X obj 86 141 * -1;
#X obj 86 195 tgl 15 0 empty empty empty 17 7 0 10 -262144 -1 -1 1
1;
#X obj 308 28 inlet;
#X obj 302 54 tgl 15 0 empty empty empty 17 7 0 10 -262144 -1 -1 0
1;
#X obj 215 9 loadbang;
#X msg 213 36 1;
#X obj 225 88 int;
#X obj 125 65 metro;
#X obj 94 -3 inlet;
#X obj 130 22 tgl 15 0 empty empty empty 17 7 0 10 -262144 -1 -1 0
1;
#X msg 164 168 0;
#X msg 193 168 2;
#X msg 221 168 4;
#X msg 248 166 6;
#X msg 279 169 8;
#X msg 308 168 10;
#X msg 336 169 12;
#X msg 365 169 14;
#X msg 393 170 16;
#X msg 421 169 18;
#X msg 449 169 20;
#X msg 478 169 22;
#X msg 509 169 24;
#X msg 538 171 26;
#X msg 570 168 28;
#X msg 602 172 30;
#X msg 635 173 32;
#X obj 934 310 f;
#X floatatom 196 312 5 0 0 0 - - -, f 5;
#X obj 491 46 select 0 2 4 6 8 10 12 14 16 18 20 22 24 26 28 30 32
34 36 38 40 42 44 46 48 50 52 54 56 58 60 62 64;
#X msg 672 170 34;
#X msg 700 170 36;
#X msg 729 171 38;
#X msg 760 170 40;
#X msg 789 172 42;
#X msg 821 169 44;
#X msg 853 173 46;
#X msg 886 174 48;
#X msg 916 174 50;
#X msg 947 171 52;
#X msg 979 175 54;
#X msg 1013 176 56;
#X msg 1025 205 58;
#X msg 1056 202 60;
#X msg 1088 206 62;
#X msg 1122 207 64;
#X msg 71 51 bang;
#X connect 0 0 2 0;
#X connect 0 0 34 0;
#X connect 0 0 51 0;
#X connect 2 0 1 0;
#X connect 2 0 33 0;
#X connect 3 0 1 0;
#X connect 3 0 33 0;
#X connect 4 0 6 0;
#X connect 5 0 4 0;
#X connect 6 0 2 1;
#X connect 7 0 8 0;
#X connect 8 0 11 1;
#X connect 9 0 10 0;
#X connect 10 0 6 0;
#X connect 11 0 3 1;
#X connect 11 0 5 0;
#X connect 11 0 14 0;
#X connect 12 0 32 0;
#X connect 13 0 12 1;
#X connect 14 0 12 0;
#X connect 15 0 32 0;
#X connect 16 0 32 0;
#X connect 17 0 32 0;
#X connect 18 0 32 0;
#X connect 19 0 32 0;
#X connect 20 0 32 0;
#X connect 21 0 32 0;
#X connect 22 0 32 0;
#X connect 23 0 32 0;
#X connect 24 0 32 0;
#X connect 25 0 32 0;
#X connect 26 0 32 0;
#X connect 27 0 32 0;
#X connect 28 0 32 0;
#X connect 29 0 32 0;
#X connect 30 0 32 0;
#X connect 31 0 32 0;
#X connect 32 0 3 0;
#X connect 34 0 15 0;
#X connect 34 1 16 0;
#X connect 34 2 17 0;
#X connect 34 3 18 0;
#X connect 34 4 19 0;
#X connect 34 5 20 0;
#X connect 34 6 21 0;
#X connect 34 7 22 0;
#X connect 34 8 23 0;
#X connect 34 9 24 0;
#X connect 34 10 25 0;
#X connect 34 11 26 0;
#X connect 34 12 27 0;
#X connect 34 13 28 0;
#X connect 34 14 29 0;
#X connect 34 15 30 0;
#X connect 34 16 31 0;
#X connect 34 17 35 0;
#X connect 34 18 36 0;
#X connect 34 19 37 0;
#X connect 34 20 38 0;
#X connect 34 21 39 0;
#X connect 34 22 40 0;
#X connect 34 23 41 0;
#X connect 34 24 42 0;
#X connect 34 25 43 0;
#X connect 34 26 44 0;
#X connect 34 27 45 0;
#X connect 34 28 46 0;
#X connect 34 29 47 0;
#X connect 34 30 48 0;
#X connect 34 31 49 0;
#X connect 34 32 50 0;
#X connect 35 0 32 0;
#X connect 36 0 32 0;
#X connect 37 0 32 0;
#X connect 38 0 32 0;
#X connect 39 0 32 0;
#X connect 40 0 32 0;
#X connect 41 0 32 0;
#X connect 42 0 32 0;
#X connect 43 0 32 0;
#X connect 44 0 32 0;
#X connect 45 0 32 0;
#X connect 46 0 32 0;
#X connect 47 0 32 0;
#X connect 48 0 32 0;
#X connect 49 0 32 0;
#X connect 50 0 32 0;
#X connect 51 0 11 0;
#X restore 112 394 pd stutter;
#X obj 437 216 / 16;
#X obj 163 255 * 16;
#X obj 229 351 /;
#N canvas 0 22 545 396 rounding 0;
#X obj 217 127 moses 1.5;
#X msg 180 130 0.5;
#X msg 217 151 1;
#X msg 249 174 2;
#X obj 252 151 moses 3;
#X obj 287 173 moses 6;
#X msg 287 196 4;
#X obj 324 199 moses 12;
#X msg 321 221 8;
#X obj 359 220 moses 24;
#X msg 359 244 16;
#X obj 256 294 outlet;
#X obj 391 247 moses 48;
#X msg 392 271 32;
#X msg 431 282 64;
#X obj 22 6 inlet;
#X obj 182 105 moses 0.75;
#X obj 146 77 moses 0.375;
#X msg 146 101 0.25;
#X obj 113 55 moses 0.1875;
#X msg 97 83 0.125;
#X obj 66 36 moses 0.09375;
#X msg 51 62 0.0625;
#X connect 0 0 2 0;
#X connect 0 1 4 0;
#X connect 1 0 11 0;
#X connect 2 0 11 0;
#X connect 3 0 11 0;
#X connect 4 0 3 0;
#X connect 4 1 5 0;
#X connect 5 0 6 0;
#X connect 5 1 7 0;
#X connect 6 0 11 0;
#X connect 7 0 8 0;
#X connect 7 1 9 0;
#X connect 8 0 11 0;
#X connect 9 0 10 0;
#X connect 9 1 12 0;
#X connect 10 0 11 0;
#X connect 12 0 13 0;
#X connect 12 1 14 0;
#X connect 13 0 11 0;
#X connect 14 0 11 0;
#X connect 15 0 21 0;
#X connect 16 0 1 0;
#X connect 16 1 0 0;
#X connect 17 0 18 0;
#X connect 17 1 16 0;
#X connect 18 0 11 0;
#X connect 19 0 20 0;
#X connect 19 1 17 0;
#X connect 20 0 11 0;
#X connect 21 0 22 0;
#X connect 21 1 19 0;
#X connect 22 0 11 0;
#X restore 211 405 pd rounding;
#X obj 220 467 * 16;
#X obj 220 520 t f b;
#X obj 170 228 * 1;
#X obj 32 139 mod 16;
#X obj 139 307 / 2;
#X msg 380 596 0 5 \, 1 5;
#X msg 202 150 bang;
#X msg 98 170 bang;
#X floatatom 163 131 2 0 0 0 length - -, f 2;
#X floatatom 163 144 2 0 0 0 slice - -, f 2;
#X obj 21 59 r tick;
#X obj 72 56 r spacing;
#X text 181 25 samp up;
#X text 319 8 freeze;
#X text 369 10 rand;
#X text 405 10 stutter;
#X obj 240 69 r total_loops;
#X obj 201 94 random;
#X obj 172 288 t b f;
#X obj 325 28 inlet;
#X obj 365 27 inlet;
#X obj 409 27 inlet;
#X obj 197 47 inlet;
#X obj 407 70 tabread \$0-lengths;
#X obj 475 348 pack f f;
#X msg 467 396 set \$1-\$2-r;
#X msg 477 443 set \$1-\$2-l;
#X obj 464 260 t b f;
#X obj 456 300 r Storage_ID;
#X obj 459 319 int;
#X obj 124 13 r loop_b_change;
#X connect 0 0 13 0;
#X connect 1 0 14 0;
#X connect 4 0 33 0;
#X connect 4 0 50 0;
#X connect 4 0 54 0;
#X connect 5 0 7 0;
#X connect 6 0 0 0;
#X connect 6 0 1 0;
#X connect 7 0 9 0;
#X connect 8 0 7 1;
#X connect 9 0 6 0;
#X connect 10 0 7 2;
#X connect 10 0 29 0;
#X connect 10 0 31 0;
#X connect 11 0 2 0;
#X connect 12 0 3 0;
#X connect 13 0 11 0;
#X connect 14 0 12 0;
#X connect 15 0 14 1;
#X connect 15 0 13 1;
#X connect 16 0 17 0;
#X connect 17 0 22 0;
#X connect 18 0 23 0;
#X connect 19 0 8 0;
#X connect 20 0 5 0;
#X connect 20 0 36 0;
#X connect 20 1 19 0;
#X connect 20 2 32 0;
#X connect 21 0 25 0;
#X connect 22 0 20 0;
#X connect 23 0 5 1;
#X connect 23 0 8 1;
#X connect 24 0 45 0;
#X connect 25 0 26 0;
#X connect 26 0 27 0;
#X connect 27 0 28 0;
#X connect 27 0 16 1;
#X connect 27 0 30 1;
#X connect 27 0 35 0;
#X connect 28 0 23 1;
#X connect 28 1 18 0;
#X connect 29 0 24 0;
#X connect 30 0 16 0;
#X connect 31 0 22 1;
#X connect 32 0 15 0;
#X connect 33 0 10 0;
#X connect 34 0 4 0;
#X connect 37 0 30 0;
#X connect 37 0 34 0;
#X connect 38 0 10 0;
#X connect 43 0 44 1;
#X connect 44 0 4 0;
#X connect 45 0 25 0;
#X connect 45 1 25 1;
#X connect 46 0 17 1;
#X connect 47 0 16 2;
#X connect 48 0 22 2;
#X connect 49 0 44 0;
#X connect 50 0 18 0;
#X connect 50 0 21 0;
#X connect 51 0 52 0;
#X connect 51 0 53 0;
#X connect 52 0 0 0;
#X connect 53 0 1 0;
#X connect 54 0 56 0;
#X connect 54 1 51 1;
#X connect 55 0 56 0;
#X connect 56 0 51 0;
#X connect 57 0 4 0;
#X coords 0 -1 1 1 85 60 1 100 100;
#X restore 226 73 pd loop_b;
#X obj 122 18 r one;
#X obj 156 37 r q;
#X obj 183 41 r w;
#X obj 212 43 r e;
#X obj 222 18 r two;
#X obj 256 37 r a;
#X obj 283 41 r s;
#X obj 312 43 r d;
#X obj 151 211 outlet~;
#X obj 201 211 outlet~;
#X obj 251 211 outlet~;
#X obj 301 211 outlet~;
#X connect 0 0 10 0;
#X connect 0 1 11 0;
#X connect 1 0 12 0;
#X connect 1 1 13 0;
#X connect 2 0 0 0;
#X connect 3 0 0 1;
#X connect 4 0 0 2;
#X connect 5 0 0 3;
#X connect 6 0 1 0;
#X connect 7 0 1 1;
#X connect 8 0 1 2;
#X connect 9 0 1 3;
#X restore 4 59 pd sampledriver;
#N canvas 0 0 495 554 processing++ 0;
#X obj 78 105 inlet~;
#X obj 108 125 inlet~;
#X obj 136 105 inlet~;
#X obj 165 125 inlet~;
#X obj 80 300 outlet~;
#X obj 108 320 outlet~;
#X obj 137 300 outlet~;
#X obj 166 321 outlet~;
#N canvas 0 0 495 554 ghostphucker 0;
#X obj 86 75 inlet~;
#X obj 128 75 inlet~;
#X obj 170 75 inlet~;
#X obj 212 75 inlet~;
#X obj 86 520 outlet~;
#X obj 134 520 outlet~;
#X obj 182 520 outlet~;
#X obj 230 520 outlet~;
#N canvas 0 0 495 554 passthroughA 0;
#X obj 86 75 inlet~;
#X obj 133 75 inlet~;
#X obj 85 104 outlet~;
#X obj 133 104 outlet~;
#X obj 254 84 inlet;
#X obj 254 132 switch~;
#X obj 254 100 * -1;
#X obj 254 116 + 1;
#X connect 0 0 2 0;
#X connect 1 0 3 0;
#X connect 4 0 6 0;
#X connect 6 0 7 0;
#X connect 7 0 5 0;
#X restore 47 227 pd passthroughA;
#N canvas 0 0 495 554 passthroughA 0;
#X obj 86 75 inlet~;
#X obj 133 75 inlet~;
#X obj 85 104 outlet~;
#X obj 133 104 outlet~;
#X obj 254 84 inlet;
#X obj 254 132 switch~;
#X obj 254 100 * -1;
#X obj 254 116 + 1;
#X connect 0 0 2 0;
#X connect 1 0 3 0;
#X connect 4 0 6 0;
#X connect 6 0 7 0;
#X connect 7 0 5 0;
#X restore 147 227 pd passthroughA;
#X obj 264 119 tgl 15 0 empty empty empty 17 7 0 10 -262144 -1 -1 0
1;
#X obj 262 36 loadbang;
#X msg 262 52 0;
#X obj 284 122 tgl 15 0 empty empty empty 17 7 0 10 -262144 -1 -1 0
1;
#N canvas 0 0 495 554 dsprocA 0;
#X obj 120 112 inlet~;
#X obj 120 388 outlet~;
#X obj 300 113 inlet;
#X obj 300 129 switch~;
#X obj 120 191 *~;
#X obj 120 216 lop~ 22050;
#X obj 210 112 inlet~;
#X obj 210 388 outlet~;
#X obj 210 191 *~;
#X obj 210 216 lop~ 22050;
#X obj 136 167 osc~ 11025;
#X obj 226 167 osc~ 11025;
#X obj 120 242 hip~ 1000;
#X obj 210 242 hip~ 1000;
#X connect 0 0 4 0;
#X connect 2 0 3 0;
#X connect 4 0 5 0;
#X connect 5 0 12 0;
#X connect 6 0 8 0;
#X connect 8 0 9 0;
#X connect 9 0 13 0;
#X connect 10 0 4 1;
#X connect 11 0 8 1;
#X connect 12 0 1 0;
#X connect 13 0 7 0;
#X restore 258 230 pd dsprocA;
#X obj 287 78 r three;
#X obj 335 78 r four;
#N canvas 0 0 495 554 dsprocB 0;
#X obj 120 112 inlet~;
#X obj 120 388 outlet~;
#X obj 300 113 inlet;
#X obj 300 129 switch~;
#X obj 120 191 *~;
#X obj 120 216 lop~ 22050;
#X obj 210 112 inlet~;
#X obj 210 388 outlet~;
#X obj 210 191 *~;
#X obj 210 216 lop~ 22050;
#X obj 136 167 osc~ 11025;
#X obj 226 167 osc~ 11025;
#X obj 120 242 hip~ 1000;
#X obj 210 242 hip~ 1000;
#X connect 0 0 4 0;
#X connect 2 0 3 0;
#X connect 4 0 5 0;
#X connect 5 0 12 0;
#X connect 6 0 8 0;
#X connect 8 0 9 0;
#X connect 9 0 13 0;
#X connect 10 0 4 1;
#X connect 11 0 8 1;
#X connect 12 0 1 0;
#X connect 13 0 7 0;
#X restore 328 230 pd dsprocB;
#X connect 0 0 8 0;
#X connect 0 0 14 0;
#X connect 1 0 8 1;
#X connect 1 0 14 1;
#X connect 2 0 9 0;
#X connect 2 0 17 0;
#X connect 3 0 9 1;
#X connect 3 0 17 1;
#X connect 8 0 4 0;
#X connect 8 1 5 0;
#X connect 9 0 6 0;
#X connect 9 1 7 0;
#X connect 10 0 8 2;
#X connect 10 0 14 2;
#X connect 11 0 12 0;
#X connect 12 0 10 0;
#X connect 12 0 13 0;
#X connect 13 0 9 2;
#X connect 13 0 17 2;
#X connect 14 0 4 0;
#X connect 14 1 5 0;
#X connect 15 0 10 0;
#X connect 16 0 13 0;
#X connect 17 0 6 0;
#X connect 17 1 7 0;
#X restore 78 152 pd ghostphucker;
#X text 179 152 keys 3/4;
#X text 180 178 keys u/j;
#N canvas 0 0 495 554 distortion++ 0;
#X obj 68 124 inlet~;
#X obj 118 124 inlet~;
#X obj 168 124 inlet~;
#X obj 218 124 inlet~;
#X obj 78 280 outlet~;
#X obj 128 280 outlet~;
#X obj 178 280 outlet~;
#X obj 228 280 outlet~;
#N canvas 0 0 495 554 passthruA 0;
#X obj 70 147 inlet~;
#X obj 70 166 hip~ 5;
#X obj 70 185 outlet~;
#X obj 130 147 inlet~;
#X obj 130 166 hip~ 5;
#X obj 130 185 outlet~;
#X obj 250 145 inlet;
#X obj 250 164 * -1;
#X obj 250 183 + 1;
#X obj 250 202 switch~;
#X connect 0 0 1 0;
#X connect 1 0 2 0;
#X connect 3 0 4 0;
#X connect 4 0 5 0;
#X connect 6 0 7 0;
#X connect 7 0 8 0;
#X connect 8 0 9 0;
#X restore 57 181 pd passthruA;
#N canvas 0 0 495 554 passthruB 0;
#X obj 70 147 inlet~;
#X obj 70 166 hip~ 5;
#X obj 70 185 outlet~;
#X obj 130 147 inlet~;
#X obj 130 166 hip~ 5;
#X obj 130 185 outlet~;
#X obj 250 145 inlet;
#X obj 250 164 * -1;
#X obj 250 183 + 1;
#X obj 250 202 switch~;
#X connect 0 0 1 0;
#X connect 1 0 2 0;
#X connect 3 0 4 0;
#X connect 4 0 5 0;
#X connect 6 0 7 0;
#X connect 7 0 8 0;
#X connect 8 0 9 0;
#X restore 137 181 pd passthruB;
#X obj 254 32 loadbang;
#X msg 254 51 0;
#X obj 254 70 tgl 15 0 empty empty empty 17 7 0 10 -262144 -1 -1 0
1;
#N canvas 0 0 495 554 distprocA 0;
#X obj 100 185 inlet~;
#X obj 100 202 *~ 100;
#X obj 100 219 clip~ -1 1;
#X obj 100 257 hip~ 5;
#X obj 100 276 outlet~;
#X obj 170 185 inlet~;
#X obj 170 202 *~ 100;
#X obj 170 219 clip~ -1 1;
#X obj 170 257 hip~ 5;
#X obj 170 276 outlet~;
#X obj 293 188 inlet;
#X obj 293 207 switch~;
#X obj 170 238 *~ 0.125;
#X obj 100 238 *~ 0.125;
#X connect 0 0 1 0;
#X connect 1 0 2 0;
#X connect 2 0 13 0;
#X connect 3 0 4 0;
#X connect 5 0 6 0;
#X connect 6 0 7 0;
#X connect 7 0 12 0;
#X connect 8 0 9 0;
#X connect 10 0 11 0;
#X connect 12 0 8 0;
#X connect 13 0 3 0;
#X restore 250 182 pd distprocA;
#X obj 274 70 tgl 15 0 empty empty empty 17 7 0 10 -262144 -1 -1 0
1;
#N canvas 0 0 495 554 distprocB 0;
#X obj 100 185 inlet~;
#X obj 100 202 *~ 100;
#X obj 100 219 clip~ -1 1;
#X obj 100 257 hip~ 5;
#X obj 100 276 outlet~;
#X obj 170 185 inlet~;
#X obj 170 202 *~ 100;
#X obj 170 219 clip~ -1 1;
#X obj 170 257 hip~ 5;
#X obj 170 276 outlet~;
#X obj 293 188 inlet;
#X obj 293 207 switch~;
#X obj 170 238 *~ 0.125;
#X obj 100 238 *~ 0.125;
#X connect 0 0 1 0;
#X connect 1 0 2 0;
#X connect 2 0 13 0;
#X connect 3 0 4 0;
#X connect 5 0 6 0;
#X connect 6 0 7 0;
#X connect 7 0 12 0;
#X connect 8 0 9 0;
#X connect 10 0 11 0;
#X connect 12 0 8 0;
#X connect 13 0 3 0;
#X restore 330 182 pd distprocB;
#X obj 310 49 r u;
#X obj 336 49 r j;
#X connect 0 0 8 0;
#X connect 0 0 13 0;
#X connect 1 0 8 1;
#X connect 1 0 13 1;
#X connect 2 0 9 0;
#X connect 2 0 15 0;
#X connect 3 0 9 1;
#X connect 3 0 15 1;
#X connect 8 0 4 0;
#X connect 8 1 5 0;
#X connect 9 0 6 0;
#X connect 9 1 7 0;
#X connect 10 0 11 0;
#X connect 11 0 12 0;
#X connect 11 0 14 0;
#X connect 12 0 8 2;
#X connect 12 0 13 2;
#X connect 13 0 4 0;
#X connect 13 1 5 0;
#X connect 14 0 9 2;
#X connect 14 0 15 2;
#X connect 15 0 6 0;
#X connect 15 1 7 0;
#X connect 16 0 12 0;
#X connect 17 0 14 0;
#X restore 79 177 pd distortion++;
#N canvas 0 0 495 554 filtito+++++ 0;
#X obj 48 50 inlet~;
#X obj 98 50 inlet~;
#X obj 148 50 inlet~;
#X obj 198 50 inlet~;
#N canvas 0 0 495 554 passthruA 0;
#X obj 70 147 inlet~;
#X obj 70 166 hip~ 5;
#X obj 70 185 outlet~;
#X obj 130 147 inlet~;
#X obj 130 166 hip~ 5;
#X obj 130 185 outlet~;
#X obj 250 145 inlet;
#X obj 250 164 * -1;
#X obj 250 183 + 1;
#X obj 250 202 switch~;
#X connect 0 0 1 0;
#X connect 1 0 2 0;
#X connect 3 0 4 0;
#X connect 4 0 5 0;
#X connect 6 0 7 0;
#X connect 7 0 8 0;
#X connect 8 0 9 0;
#X restore 17 141 pd passthruA;
#N canvas 0 0 495 554 passthruB 0;
#X obj 70 147 inlet~;
#X obj 70 166 hip~ 5;
#X obj 70 185 outlet~;
#X obj 130 147 inlet~;
#X obj 130 166 hip~ 5;
#X obj 130 185 outlet~;
#X obj 250 145 inlet;
#X obj 250 164 * -1;
#X obj 250 183 + 1;
#X obj 250 202 switch~;
#X connect 0 0 1 0;
#X connect 1 0 2 0;
#X connect 3 0 4 0;
#X connect 4 0 5 0;
#X connect 6 0 7 0;
#X connect 7 0 8 0;
#X connect 8 0 9 0;
#X restore 97 141 pd passthruB;
#X obj 272 14 loadbang;
#X msg 272 33 0;
#X obj 272 52 tgl 15 0 empty empty empty 17 7 0 10 -262144 -1 -1 0
1;
#X obj 291 53 tgl 15 0 empty empty empty 17 7 0 10 -262144 -1 -1 0
1;
#N canvas 0 0 495 554 filterA 0;
#X obj 109 128 inlet~;
#X obj 193 127 inlet~;
#X obj 372 181 tgl 15 0 empty empty empty 17 7 0 10 -262144 -1 -1 0
1;
#X obj 146 610 outlet~;
#X obj 208 610 outlet~;
#X obj 289 409 mtof~;
#X obj 292 207 phasor~ 1;
#X obj 379 224 select 1;
#X msg 380 254 0;
#X obj 115 574 hip~ 5;
#X obj 201 577 hip~ 5;
#X obj 298 365 +~;
#X obj 310 334 line~;
#X obj 399 307 random 6;
#X obj 378 357 + 2;
#X obj 282 55 / 1000;
#X floatatom 288 89 5 0 0 0 - - -, f 5;
#X obj 290 257 *~ 43;
#X msg 310 304 70;
#X obj 282 28 r spacing;
#X obj 118 471 vcf~ 8;
#X obj 206 475 vcf~ 8;
#X obj 291 151 * 16;
#X obj 439 176 switch~;
#X obj 427 117 inlet;
#X obj 433 146 t f f;
#X connect 0 0 20 0;
#X connect 1 0 21 0;
#X connect 2 0 7 0;
#X connect 2 0 18 0;
#X connect 5 0 20 1;
#X connect 5 0 21 1;
#X connect 6 0 17 0;
#X connect 7 0 8 0;
#X connect 7 0 13 0;
#X connect 8 0 6 1;
#X connect 9 0 3 0;
#X connect 10 0 4 0;
#X connect 11 0 5 0;
#X connect 12 0 11 1;
#X connect 13 0 14 0;
#X connect 14 0 20 2;
#X connect 14 0 21 2;
#X connect 15 0 16 0;
#X connect 16 0 22 0;
#X connect 17 0 11 0;
#X connect 18 0 12 0;
#X connect 19 0 15 0;
#X connect 20 0 9 0;
#X connect 21 0 10 0;
#X connect 22 0 6 0;
#X connect 24 0 25 0;
#X connect 25 0 2 0;
#X connect 25 1 23 0;
#X restore 182 138 pd filterA;
#N canvas 0 0 495 554 filterB 0;
#X obj 109 128 inlet~;
#X obj 193 127 inlet~;
#X obj 372 181 tgl 15 0 empty empty empty 17 7 0 10 -262144 -1 -1 0
1;
#X obj 146 610 outlet~;
#X obj 208 610 outlet~;
#X obj 289 409 mtof~;
#X obj 292 207 phasor~ 1;
#X obj 379 224 select 1;
#X msg 380 254 0;
#X obj 115 574 hip~ 5;
#X obj 201 577 hip~ 5;
#X obj 298 365 +~;
#X obj 310 334 line~;
#X obj 399 307 random 6;
#X obj 378 357 + 2;
#X obj 282 55 / 1000;
#X floatatom 288 89 5 0 0 0 - - -, f 5;
#X obj 290 257 *~ 43;
#X msg 310 304 70;
#X obj 282 28 r spacing;
#X obj 118 471 vcf~ 8;
#X obj 206 475 vcf~ 8;
#X obj 291 151 * 16;
#X obj 439 176 switch~;
#X obj 427 117 inlet;
#X obj 433 146 t f f;
#X connect 0 0 20 0;
#X connect 1 0 21 0;
#X connect 2 0 7 0;
#X connect 2 0 18 0;
#X connect 5 0 20 1;
#X connect 5 0 21 1;
#X connect 6 0 17 0;
#X connect 7 0 8 0;
#X connect 7 0 13 0;
#X connect 8 0 6 1;
#X connect 9 0 3 0;
#X connect 10 0 4 0;
#X connect 11 0 5 0;
#X connect 12 0 11 1;
#X connect 13 0 14 0;
#X connect 14 0 20 2;
#X connect 14 0 21 2;
#X connect 15 0 16 0;
#X connect 16 0 22 0;
#X connect 17 0 11 0;
#X connect 18 0 12 0;
#X connect 19 0 15 0;
#X connect 20 0 9 0;
#X connect 21 0 10 0;
#X connect 22 0 6 0;
#X connect 24 0 25 0;
#X connect 25 0 2 0;
#X connect 25 1 23 0;
#X restore 252 138 pd filterB;
#X obj 64 251 outlet~;
#X obj 114 251 outlet~;
#X obj 164 251 outlet~;
#X obj 214 251 outlet~;
#X obj 333 9 r t;
#X obj 357 12 r g;
#X connect 0 0 4 0;
#X connect 0 0 10 0;
#X connect 1 0 4 1;
#X connect 1 0 10 1;
#X connect 2 0 5 0;
#X connect 2 0 11 0;
#X connect 3 0 5 1;
#X connect 3 0 11 1;
#X connect 4 0 12 0;
#X connect 4 1 13 0;
#X connect 5 0 14 0;
#X connect 5 1 15 0;
#X connect 6 0 7 0;
#X connect 7 0 8 0;
#X connect 7 0 9 0;
#X connect 8 0 4 2;
#X connect 8 0 10 2;
#X connect 9 0 5 2;
#X connect 9 0 11 2;
#X connect 10 0 12 0;
#X connect 10 1 13 0;
#X connect 11 0 14 0;
#X connect 11 1 15 0;
#X connect 16 0 8 0;
#X connect 17 0 9 0;
#X restore 79 199 pd filtito+++++;
#X text 179 200 keys t/g;
#N canvas 0 0 495 554 robotic+++++ 0;
#X obj 14 10 inlet~;
#X obj 56 10 inlet~;
#X obj 98 10 inlet~;
#X obj 140 10 inlet~;
#X obj 37 276 outlet~;
#X obj 87 276 outlet~;
#X obj 137 276 outlet~;
#X obj 187 276 outlet~;
#N canvas 0 0 495 554 roboticprocA 0;
#X obj 19 97 inlet~;
#X obj 53 351 outlet~;
#X obj 50 234 *~ 0.5;
#X obj 39 172 *~ 0.9;
#X obj 152 103 inlet~;
#X obj 112 354 outlet~;
#X obj 160 234 *~ 0.5;
#X obj 149 172 *~ 0.9;
#X obj 311 148 select 0;
#X obj 306 229 t b f;
#X msg 305 257 1.61803;
#X obj 311 101 r tick;
#X obj 310 293 pow;
#X obj 397 78 inlet;
#X obj 397 94 switch~;
#X obj 311 127 mod 1;
#X obj 306 203 + 3;
#X obj 35 141 delwrite~ \$0-L_A 100;
#X obj 176 143 delwrite~ \$0-R_A 100;
#X obj 72 204 delread~ \$0-L_A;
#X obj 182 204 delread~ \$0-R_A;
#X obj 305 184 random 5;
#X connect 0 0 17 0;
#X connect 2 0 1 0;
#X connect 3 0 17 0;
#X connect 4 0 18 0;
#X connect 6 0 5 0;
#X connect 7 0 18 0;
#X connect 8 0 21 0;
#X connect 9 0 10 0;
#X connect 9 1 12 1;
#X connect 10 0 12 0;
#X connect 11 0 15 0;
#X connect 12 0 19 0;
#X connect 12 0 20 0;
#X connect 13 0 14 0;
#X connect 15 0 8 0;
#X connect 16 0 9 0;
#X connect 19 0 2 0;
#X connect 19 0 3 0;
#X connect 20 0 6 0;
#X connect 20 0 7 0;
#X connect 21 0 16 0;
#X restore 177 143 pd roboticprocA;
#N canvas 0 0 495 554 roboticprocB 0;
#X obj 19 97 inlet~;
#X obj 53 351 outlet~;
#X obj 50 234 *~ 0.5;
#X obj 39 172 *~ 0.9;
#X obj 152 103 inlet~;
#X obj 112 354 outlet~;
#X obj 160 234 *~ 0.5;
#X obj 149 172 *~ 0.9;
#X obj 311 148 select 0;
#X obj 306 229 t b f;
#X msg 305 257 1.61803;
#X obj 311 101 r tick;
#X obj 310 293 pow;
#X obj 397 78 inlet;
#X obj 397 94 switch~;
#X obj 311 127 mod 1;
#X obj 306 203 + 3;
#X obj 35 141 delwrite~ \$0-L_B 100;
#X obj 176 143 delwrite~ \$0-R_B 100;
#X obj 182 204 delread~ \$0-R_B;
#X obj 72 204 delread~ \$0-L_B;
#X obj 305 184 random 5;
#X connect 0 0 17 0;
#X connect 2 0 1 0;
#X connect 3 0 17 0;
#X connect 4 0 18 0;
#X connect 6 0 5 0;
#X connect 7 0 18 0;
#X connect 8 0 21 0;
#X connect 9 0 10 0;
#X connect 9 1 12 1;
#X connect 10 0 12 0;
#X connect 11 0 15 0;
#X connect 12 0 19 0;
#X connect 12 0 20 0;
#X connect 13 0 14 0;
#X connect 15 0 8 0;
#X connect 16 0 9 0;
#X connect 19 0 6 0;
#X connect 19 0 7 0;
#X connect 20 0 2 0;
#X connect 20 0 3 0;
#X connect 21 0 16 0;
#X restore 277 143 pd roboticprocB;
#N canvas 0 0 495 554 passthruA 0;
#X obj 70 147 inlet~;
#X obj 70 166 hip~ 5;
#X obj 70 185 outlet~;
#X obj 130 147 inlet~;
#X obj 130 166 hip~ 5;
#X obj 130 185 outlet~;
#X obj 250 145 inlet;
#X obj 250 164 * -1;
#X obj 250 183 + 1;
#X obj 250 202 switch~;
#X connect 0 0 1 0;
#X connect 1 0 2 0;
#X connect 3 0 4 0;
#X connect 4 0 5 0;
#X connect 6 0 7 0;
#X connect 7 0 8 0;
#X connect 8 0 9 0;
#X restore 17 141 pd passthruA;
#N canvas 0 0 495 554 passthruB 0;
#X obj 70 147 inlet~;
#X obj 70 166 hip~ 5;
#X obj 70 185 outlet~;
#X obj 130 147 inlet~;
#X obj 130 166 hip~ 5;
#X obj 130 185 outlet~;
#X obj 250 145 inlet;
#X obj 250 164 * -1;
#X obj 250 183 + 1;
#X obj 250 202 switch~;
#X connect 0 0 1 0;
#X connect 1 0 2 0;
#X connect 3 0 4 0;
#X connect 4 0 5 0;
#X connect 6 0 7 0;
#X connect 7 0 8 0;
#X connect 8 0 9 0;
#X restore 97 141 pd passthruB;
#X obj 246 23 loadbang;
#X msg 246 43 0;
#X obj 245 62 tgl 15 0 empty empty empty 17 7 0 10 -262144 -1 -1 0
1;
#X obj 265 63 tgl 15 0 empty empty empty 17 7 0 10 -262144 -1 -1 0
1;
#X obj 308 41 r r;
#X obj 334 52 r f;
#X obj 347 28 block~ 1024;
#X connect 0 0 10 0;
#X connect 0 0 8 0;
#X connect 1 0 10 1;
#X connect 1 0 8 1;
#X connect 2 0 11 0;
#X connect 2 0 9 0;
#X connect 3 0 11 1;
#X connect 3 0 9 1;
#X connect 8 0 4 0;
#X connect 8 1 5 0;
#X connect 9 0 6 0;
#X connect 9 1 7 0;
#X connect 10 0 4 0;
#X connect 10 1 5 0;
#X connect 11 0 6 0;
#X connect 11 1 7 0;
#X connect 12 0 13 0;
#X connect 13 0 14 0;
#X connect 13 0 15 0;
#X connect 14 0 10 2;
#X connect 14 0 8 2;
#X connect 15 0 11 2;
#X connect 15 0 9 2;
#X connect 16 0 14 0;
#X connect 17 0 15 0;
#X restore 79 227 pd robotic+++++;
#X text 179 228 keys r/f;
#N canvas 0 0 495 554 cutsalot++++ 0;
#X obj 87 32 inlet~;
#X obj 135 32 inlet~;
#X obj 237 32 inlet~;
#X obj 285 32 inlet~;
#X obj 335 33 inlet;
#X obj 6 8 loadbang;
#X msg 7 29 0;
#X obj 221 315 hip~ 5;
#X obj 124 314 hip~ 5;
#X obj 125 351 outlet~;
#X obj 223 352 outlet~;
#X obj 43 249 *~;
#X obj 79 251 *~;
#X obj 105 196 vline~;
#X obj 105 85 tgl 15 0 empty empty empty 17 7 0 10 -262144 -1 -1 0
1;
#X obj 106 108 * -1;
#X obj 108 130 + 1;
#X obj 113 249 *~;
#X obj 149 251 *~;
#X obj 286 190 vline~;
#X obj 336 190 vline~;
#X obj 339 144 + 1;
#X obj 338 122 * -1;
#X obj 301 100 tgl 15 0 empty empty empty 17 7 0 10 -262144 -1 -1 0
1;
#X obj 432 13 r tick;
#X obj 382 83 select 0;
#X obj 464 113 random;
#X obj 500 70 r total_loops;
#X obj 470 145 s loop_b_change;
#X obj 432 55 spigot;
#X msg 105 173 \$1 1;
#X msg 339 167 \$1 1;
#X msg 285 167 \$1 1;
#X obj 171 315 hip~ 5;
#X obj 74 314 hip~ 5;
#X obj 75 351 outlet~;
#X obj 173 352 outlet~;
#X obj 432 34 mod 2;
#X connect 0 0 11 0;
#X connect 1 0 12 0;
#X connect 2 0 17 0;
#X connect 3 0 18 0;
#X connect 4 0 14 0;
#X connect 5 0 6 0;
#X connect 6 0 14 0;
#X connect 7 0 10 0;
#X connect 8 0 9 0;
#X connect 11 0 34 0;
#X connect 12 0 8 0;
#X connect 13 0 11 1;
#X connect 13 0 12 1;
#X connect 13 0 17 1;
#X connect 13 0 18 1;
#X connect 14 0 15 0;
#X connect 14 0 29 1;
#X connect 15 0 16 0;
#X connect 16 0 30 0;
#X connect 17 0 33 0;
#X connect 18 0 7 0;
#X connect 19 0 18 1;
#X connect 19 0 17 1;
#X connect 20 0 12 1;
#X connect 20 0 11 1;
#X connect 21 0 31 0;
#X connect 22 0 21 0;
#X connect 23 0 32 0;
#X connect 23 0 22 0;
#X connect 24 0 37 0;
#X connect 25 0 26 0;
#X connect 25 0 23 0;
#X connect 26 0 28 0;
#X connect 27 0 26 1;
#X connect 29 0 25 0;
#X connect 30 0 13 0;
#X connect 31 0 20 0;
#X connect 32 0 19 0;
#X connect 33 0 36 0;
#X connect 34 0 35 0;
#X connect 37 0 29 0;
#X restore 79 249 pd cutsalot++++;
#X obj 191 249 r five;
#N canvas 0 0 495 554 phasor++++++ 0;
#X obj 48 50 inlet~;
#X obj 98 50 inlet~;
#X obj 148 50 inlet~;
#X obj 198 50 inlet~;
#N canvas 0 0 495 554 passthruA 0;
#X obj 70 147 inlet~;
#X obj 70 166 hip~ 5;
#X obj 70 185 outlet~;
#X obj 130 147 inlet~;
#X obj 130 166 hip~ 5;
#X obj 130 185 outlet~;
#X obj 250 145 inlet;
#X obj 250 164 * -1;
#X obj 250 183 + 1;
#X obj 250 202 switch~;
#X connect 0 0 1 0;
#X connect 1 0 2 0;
#X connect 3 0 4 0;
#X connect 4 0 5 0;
#X connect 6 0 7 0;
#X connect 7 0 8 0;
#X connect 8 0 9 0;
#X restore 17 141 pd passthruA;
#N canvas 0 0 495 554 passthruB 0;
#X obj 70 147 inlet~;
#X obj 70 166 hip~ 5;
#X obj 70 185 outlet~;
#X obj 130 147 inlet~;
#X obj 130 166 hip~ 5;
#X obj 130 185 outlet~;
#X obj 250 145 inlet;
#X obj 250 164 * -1;
#X obj 250 183 + 1;
#X obj 250 202 switch~;
#X connect 0 0 1 0;
#X connect 1 0 2 0;
#X connect 3 0 4 0;
#X connect 4 0 5 0;
#X connect 6 0 7 0;
#X connect 7 0 8 0;
#X connect 8 0 9 0;
#X restore 97 141 pd passthruB;
#X obj 272 14 loadbang;
#X msg 272 33 0;
#X obj 272 52 tgl 15 0 empty empty empty 17 7 0 10 -262144 -1 -1 0
1;
#X obj 291 53 tgl 15 0 empty empty empty 17 7 0 10 -262144 -1 -1 0
1;
#X obj 64 251 outlet~;
#X obj 114 251 outlet~;
#X obj 164 251 outlet~;
#X obj 214 251 outlet~;
#X obj 333 11 r y;
#X obj 357 12 r h;
#N canvas 0 0 495 554 phasprocA 0;
#X obj 97 478 outlet~;
#X obj 147 478 outlet~;
#X obj 48 42 inlet~;
#X obj 97 42 inlet~;
#X obj 97 429 hip~ 5;
#X obj 156 428 hip~ 5;
#X obj 203 95 rpole~;
#X obj 203 70 rzero_rev~;
#X obj 203 144 rpole~;
#X obj 203 119 rzero_rev~;
#X obj 203 192 rpole~;
#X obj 203 167 rzero_rev~;
#X obj 203 241 rpole~;
#X obj 203 216 rzero_rev~;
#X obj 180 271 +~;
#X obj 270 190 expr~ 1 - 0.03 - 0.6*abs($v1-0.5)*abs($v1-0.5);
#X obj 286 157 phasor~ 0.3;
#X obj 107 95 rpole~;
#X obj 107 70 rzero_rev~;
#X obj 107 144 rpole~;
#X obj 107 119 rzero_rev~;
#X obj 107 192 rpole~;
#X obj 107 167 rzero_rev~;
#X obj 107 241 rpole~;
#X obj 107 216 rzero_rev~;
#X obj 86 282 +~;
#X obj 262 35 r spacing;
#X msg 403 105 0;
#X obj 402 83 t b;
#X obj 260 68 expr (1 / $f1) * 64;
#X obj 398 28 bng 15 250 50 0 empty empty empty 17 7 0 10 -262144 -1
-1;
#X obj 442 102 switch~;
#X obj 429 53 select 1;
#X obj 431 25 inlet;
#X connect 2 0 25 0;
#X connect 2 0 18 0;
#X connect 3 0 14 0;
#X connect 3 0 7 0;
#X connect 4 0 0 0;
#X connect 5 0 1 0;
#X connect 6 0 9 0;
#X connect 7 0 6 0;
#X connect 8 0 11 0;
#X connect 9 0 8 0;
#X connect 10 0 13 0;
#X connect 11 0 10 0;
#X connect 12 0 14 1;
#X connect 13 0 12 0;
#X connect 14 0 5 0;
#X connect 15 0 7 1;
#X connect 15 0 6 1;
#X connect 15 0 9 1;
#X connect 15 0 8 1;
#X connect 15 0 11 1;
#X connect 15 0 10 1;
#X connect 15 0 13 1;
#X connect 15 0 12 1;
#X connect 15 0 18 1;
#X connect 15 0 17 1;
#X connect 15 0 20 1;
#X connect 15 0 19 1;
#X connect 15 0 22 1;
#X connect 15 0 21 1;
#X connect 15 0 24 1;
#X connect 15 0 23 1;
#X connect 16 0 15 0;
#X connect 17 0 20 0;
#X connect 18 0 17 0;
#X connect 19 0 22 0;
#X connect 20 0 19 0;
#X connect 21 0 24 0;
#X connect 22 0 21 0;
#X connect 23 0 25 1;
#X connect 24 0 23 0;
#X connect 25 0 4 0;
#X connect 26 0 29 0;
#X connect 27 0 16 1;
#X connect 28 0 27 0;
#X connect 29 0 16 0;
#X connect 30 0 29 0;
#X connect 32 0 28 0;
#X connect 33 0 32 0;
#X connect 33 0 31 0;
#X restore 213 139 pd phasprocA;
#N canvas 0 0 495 554 phasprocB 0;
#X obj 97 478 outlet~;
#X obj 147 478 outlet~;
#X obj 48 42 inlet~;
#X obj 97 42 inlet~;
#X obj 97 429 hip~ 5;
#X obj 156 428 hip~ 5;
#X obj 203 95 rpole~;
#X obj 203 70 rzero_rev~;
#X obj 203 144 rpole~;
#X obj 203 119 rzero_rev~;
#X obj 203 192 rpole~;
#X obj 203 167 rzero_rev~;
#X obj 203 241 rpole~;
#X obj 203 216 rzero_rev~;
#X obj 180 271 +~;
#X obj 270 190 expr~ 1 - 0.03 - 0.6*abs($v1-0.5)*abs($v1-0.5);
#X obj 286 157 phasor~ 0.3;
#X obj 107 95 rpole~;
#X obj 107 70 rzero_rev~;
#X obj 107 144 rpole~;
#X obj 107 119 rzero_rev~;
#X obj 107 192 rpole~;
#X obj 107 167 rzero_rev~;
#X obj 107 241 rpole~;
#X obj 107 216 rzero_rev~;
#X obj 86 282 +~;
#X obj 262 35 r spacing;
#X msg 403 105 0;
#X obj 402 83 t b;
#X obj 260 68 expr (1 / $f1) * 64;
#X obj 398 28 bng 15 250 50 0 empty empty empty 17 7 0 10 -262144 -1
-1;
#X obj 442 102 switch~;
#X obj 429 53 select 1;
#X obj 431 25 inlet;
#X connect 2 0 25 0;
#X connect 2 0 18 0;
#X connect 3 0 14 0;
#X connect 3 0 7 0;
#X connect 4 0 0 0;
#X connect 5 0 1 0;
#X connect 6 0 9 0;
#X connect 7 0 6 0;
#X connect 8 0 11 0;
#X connect 9 0 8 0;
#X connect 10 0 13 0;
#X connect 11 0 10 0;
#X connect 12 0 14 1;
#X connect 13 0 12 0;
#X connect 14 0 5 0;
#X connect 15 0 7 1;
#X connect 15 0 6 1;
#X connect 15 0 9 1;
#X connect 15 0 8 1;
#X connect 15 0 11 1;
#X connect 15 0 10 1;
#X connect 15 0 13 1;
#X connect 15 0 12 1;
#X connect 15 0 18 1;
#X connect 15 0 17 1;
#X connect 15 0 20 1;
#X connect 15 0 19 1;
#X connect 15 0 22 1;
#X connect 15 0 21 1;
#X connect 15 0 24 1;
#X connect 15 0 23 1;
#X connect 16 0 15 0;
#X connect 17 0 20 0;
#X connect 18 0 17 0;
#X connect 19 0 22 0;
#X connect 20 0 19 0;
#X connect 21 0 24 0;
#X connect 22 0 21 0;
#X connect 23 0 25 1;
#X connect 24 0 23 0;
#X connect 25 0 4 0;
#X connect 26 0 29 0;
#X connect 27 0 16 1;
#X connect 28 0 27 0;
#X connect 29 0 16 0;
#X connect 30 0 29 0;
#X connect 32 0 28 0;
#X connect 33 0 32 0;
#X connect 33 0 31 0;
#X restore 293 139 pd phasprocB;
#X connect 0 0 4 0;
#X connect 0 0 16 0;
#X connect 1 0 4 1;
#X connect 1 0 16 1;
#X connect 2 0 5 0;
#X connect 2 0 17 0;
#X connect 3 0 5 1;
#X connect 3 0 17 1;
#X connect 4 0 10 0;
#X connect 4 1 11 0;
#X connect 5 0 12 0;
#X connect 5 1 13 0;
#X connect 6 0 7 0;
#X connect 7 0 8 0;
#X connect 7 0 9 0;
#X connect 8 0 4 2;
#X connect 8 0 16 2;
#X connect 9 0 5 2;
#X connect 9 0 17 2;
#X connect 14 0 8 0;
#X connect 15 0 9 0;
#X connect 16 0 10 0;
#X connect 16 1 11 0;
#X connect 17 0 12 0;
#X connect 17 1 13 0;
#X restore 79 271 pd phasor++++++;
#X text 176 273 keys y/h;
#X connect 0 0 8 0;
#X connect 1 0 8 1;
#X connect 2 0 8 2;
#X connect 3 0 8 3;
#X connect 8 0 11 0;
#X connect 8 1 11 1;
#X connect 8 2 11 2;
#X connect 8 3 11 3;
#X connect 11 0 12 0;
#X connect 11 1 12 1;
#X connect 11 2 12 2;
#X connect 11 3 12 3;
#X connect 12 0 14 0;
#X connect 12 1 14 1;
#X connect 12 2 14 2;
#X connect 12 3 14 3;
#X connect 14 0 16 0;
#X connect 14 1 16 1;
#X connect 14 2 16 2;
#X connect 14 3 16 3;
#X connect 16 0 18 0;
#X connect 16 1 18 1;
#X connect 16 2 18 2;
#X connect 16 3 18 3;
#X connect 17 0 16 4;
#X connect 18 0 4 0;
#X connect 18 1 5 0;
#X connect 18 2 6 0;
#X connect 18 3 7 0;
#X restore 4 76 pd processing++;
#X obj 33 152 dac~;
#X floatatom 187 247 0 0 0 0 - - -;
#X obj 187 159 cputime;
#X obj 187 19 loadbang;
#X obj 187 103 metro 1000;
#X msg 187 47 1;
#X floatatom 187 75 0 0 0 0 - - -;
#X obj 187 131 t b b;
#X obj 187 219 * 0.1;
#X obj 187 188 int;
#X text 232 75 <-- on/off;
#X obj 186 272 s cpu_in;
#X connect 4 0 5 0;
#X connect 4 1 5 1;
#X connect 4 2 5 2;
#X connect 4 3 5 3;
#X connect 5 0 6 0;
#X connect 5 1 6 1;
#X connect 5 2 6 0;
#X connect 5 3 6 1;
#X connect 7 0 17 0;
#X connect 8 0 15 0;
#X connect 9 0 11 0;
#X connect 10 0 13 0;
#X connect 11 0 12 0;
#X connect 12 0 10 0;
#X connect 13 0 8 0;
#X connect 13 1 8 1;
#X connect 14 0 7 0;
#X connect 15 0 14 0;
#X restore 41 36 pd donotlookdonotlookdonotlook;
#X obj 391 53 nbx 3 30 -1e+37 1e+37 0 0 ++++++++++++++++++ Load_Count
Sample_Index 0 -8 0 10 -4034 -1 -4032 0 256;
#X obj 380 103 nbx 3 14 -1e+37 1e+37 0 0 empty cpu_in empty 0 -8 0
10 -258113 -1 -1 7 256;
#X text 406 106 % cpu;
#X obj 267 20 cnv 15 50 15 empty empty empty 20 12 0 14 -260097 -66577
0;
#X text 273 22 click;
#X obj 43 36 cnv 10 120 15 empty empty cutzilla.pd 10 10 0 14 -1 -4032
0;
#X connect 0 0 1 0;
